<mxfile host="Electron" agent="Mozilla/5.0 (Windows NT 10.0; Win64; x64) AppleWebKit/537.36 (KHTML, like Gecko) draw.io/24.7.8 Chrome/128.0.6613.36 Electron/32.0.1 Safari/537.36" version="24.7.8">
  <diagram name="Страница — 1" id="MbznAgMoFZY4E6D95oaR">
    <mxGraphModel dx="3489" dy="3520" grid="1" gridSize="10" guides="1" tooltips="1" connect="1" arrows="1" fold="1" page="1" pageScale="1" pageWidth="827" pageHeight="1169" math="0" shadow="0">
      <root>
        <mxCell id="0" />
        <mxCell id="1" parent="0" />
        <mxCell id="ePX0ar6k1aXEaFUsa2cX-1" value="" style="rounded=0;whiteSpace=wrap;html=1;fillColor=#dae8fc;strokeColor=#BF0D0D;strokeWidth=5;" parent="1" vertex="1">
          <mxGeometry x="608.5" y="-197.74" width="2831.5" height="2590" as="geometry" />
        </mxCell>
        <mxCell id="5yhpN9zNZQplvpEK3OU1-471" value="Postgres" style="strokeWidth=2;html=1;shape=mxgraph.flowchart.database;whiteSpace=wrap;rounded=1;movable=1;resizable=1;rotatable=1;deletable=1;editable=1;locked=0;connectable=1;strokeColor=#ff0000;fontSize=24;" parent="1" vertex="1">
          <mxGeometry x="2582" y="2017.5" width="260" height="294" as="geometry" />
        </mxCell>
        <mxCell id="5yhpN9zNZQplvpEK3OU1-608" value="" style="strokeWidth=2;html=1;shape=mxgraph.flowchart.database;whiteSpace=wrap;rounded=1;movable=1;resizable=1;rotatable=1;deletable=1;editable=1;locked=0;connectable=1;strokeColor=#fa0000;" parent="1" vertex="1">
          <mxGeometry x="1358.5" y="497.5" width="260" height="373" as="geometry" />
        </mxCell>
        <mxCell id="5yhpN9zNZQplvpEK3OU1-355" value="" style="strokeWidth=2;html=1;shape=mxgraph.flowchart.database;whiteSpace=wrap;rounded=1;movable=1;resizable=1;rotatable=1;deletable=1;editable=1;locked=0;connectable=1;strokeColor=#ff0000;" parent="1" vertex="1">
          <mxGeometry x="845" y="497.25" width="260" height="294" as="geometry" />
        </mxCell>
        <mxCell id="5yhpN9zNZQplvpEK3OU1-452" value="" style="strokeWidth=2;html=1;shape=mxgraph.flowchart.database;whiteSpace=wrap;rounded=1;movable=1;resizable=1;rotatable=1;deletable=1;editable=1;locked=0;connectable=1;strokeColor=#FF0000;" parent="1" vertex="1">
          <mxGeometry x="2235" y="2086" width="260" height="164.5" as="geometry" />
        </mxCell>
        <mxCell id="5yhpN9zNZQplvpEK3OU1-578" value="Сервис: Техподдержка" style="rounded=1;whiteSpace=wrap;html=1;strokeColor=#ff0000;strokeWidth=3;align=center;horizontal=1;labelPosition=center;verticalLabelPosition=top;verticalAlign=bottom;fontSize=24;" parent="1" vertex="1">
          <mxGeometry x="800" y="1011.76" width="329" height="335.5" as="geometry" />
        </mxCell>
        <mxCell id="5yhpN9zNZQplvpEK3OU1-549" value="Сервис: Апелляция" style="rounded=1;whiteSpace=wrap;html=1;strokeColor=#ff0000;strokeWidth=3;align=center;horizontal=1;labelPosition=center;verticalLabelPosition=top;verticalAlign=bottom;fontSize=24;" parent="1" vertex="1">
          <mxGeometry x="2640" y="245.5" width="330" height="393.75" as="geometry" />
        </mxCell>
        <mxCell id="5yhpN9zNZQplvpEK3OU1-496" value="Сервис: Отчетность" style="rounded=1;whiteSpace=wrap;html=1;strokeColor=#ff0000;strokeWidth=3;align=center;horizontal=1;labelPosition=center;verticalLabelPosition=top;verticalAlign=bottom;fontSize=24;" parent="1" vertex="1">
          <mxGeometry x="975.5" y="1580" width="329" height="335.5" as="geometry" />
        </mxCell>
        <mxCell id="5yhpN9zNZQplvpEK3OU1-491" value="Сервис: Взаимодействие с внешним платежным сервисом:" style="rounded=1;whiteSpace=wrap;html=1;strokeColor=#ff0000;strokeWidth=3;align=center;horizontal=1;labelPosition=center;verticalLabelPosition=top;verticalAlign=bottom;fontSize=24;" parent="1" vertex="1">
          <mxGeometry x="2988.5" y="982.63" width="330" height="393.75" as="geometry" />
        </mxCell>
        <mxCell id="5yhpN9zNZQplvpEK3OU1-454" value="Сервис: Каталог товаров/услуг" style="rounded=1;whiteSpace=wrap;html=1;strokeColor=#ff0000;strokeWidth=3;align=center;horizontal=1;labelPosition=center;verticalLabelPosition=top;verticalAlign=bottom;fontSize=24;" parent="1" vertex="1">
          <mxGeometry x="2715" y="1562" width="330" height="455.5" as="geometry" />
        </mxCell>
        <mxCell id="5yhpN9zNZQplvpEK3OU1-351" value="Сервис: Авторизация" style="rounded=1;whiteSpace=wrap;html=1;strokeColor=#ff0000;strokeWidth=3;align=center;horizontal=1;labelPosition=center;verticalLabelPosition=top;verticalAlign=bottom;fontSize=24;" parent="1" vertex="1">
          <mxGeometry x="810" y="160" width="329" height="335.5" as="geometry" />
        </mxCell>
        <mxCell id="5yhpN9zNZQplvpEK3OU1-422" value="Сервис: Аукцион" style="rounded=1;whiteSpace=wrap;html=1;strokeColor=#ff0000;strokeWidth=3;align=center;horizontal=1;labelPosition=center;verticalLabelPosition=top;verticalAlign=bottom;fontSize=24;" parent="1" vertex="1">
          <mxGeometry x="2200" y="1686.75" width="330" height="393.75" as="geometry" />
        </mxCell>
        <mxCell id="5yhpN9zNZQplvpEK3OU1-390" value="Сервис: Заказ" style="rounded=1;whiteSpace=wrap;html=1;strokeColor=#ff0000;strokeWidth=3;align=center;horizontal=1;labelPosition=center;verticalLabelPosition=top;verticalAlign=bottom;fontSize=24;" parent="1" vertex="1">
          <mxGeometry x="1654" y="1686.75" width="330" height="423.75" as="geometry" />
        </mxCell>
        <mxCell id="5yhpN9zNZQplvpEK3OU1-370" value="Сервис: Нотификация" style="rounded=1;whiteSpace=wrap;html=1;strokeColor=#ff0000;strokeWidth=3;align=center;horizontal=1;labelPosition=center;verticalLabelPosition=top;verticalAlign=bottom;fontSize=24;" parent="1" vertex="1">
          <mxGeometry x="2227" y="110.25" width="330" height="278.5" as="geometry" />
        </mxCell>
        <mxCell id="5yhpN9zNZQplvpEK3OU1-5" value="" style="group" parent="1" vertex="1" connectable="0">
          <mxGeometry x="1691" y="-203" width="155" height="49" as="geometry" />
        </mxCell>
        <mxCell id="5yhpN9zNZQplvpEK3OU1-6" value="&lt;p style=&quot;margin: 0px 0px 0px 13px; text-indent: -13px; font-variant-numeric: normal; font-variant-east-asian: normal; font-variant-alternates: normal; font-kerning: auto; font-optical-sizing: auto; font-feature-settings: normal; font-variation-settings: normal; font-variant-position: normal; font-stretch: normal; font-size: 14px; line-height: normal; color: rgb(14, 14, 14); text-align: start;&quot; class=&quot;p1&quot;&gt;&lt;br&gt;&lt;/p&gt;" style="rounded=1;whiteSpace=wrap;html=1;fillColor=#FF77BF;strokeColor=none;arcSize=33;" parent="5yhpN9zNZQplvpEK3OU1-5" vertex="1">
          <mxGeometry y="13" width="155" height="34" as="geometry" />
        </mxCell>
        <mxCell id="5yhpN9zNZQplvpEK3OU1-7" value="&lt;font style=&quot;font-size: 18px;&quot;&gt;&lt;i&gt;React/HTML/CSS&lt;/i&gt;&lt;/font&gt;" style="text;html=1;align=center;verticalAlign=middle;whiteSpace=wrap;rounded=1;shadow=0;fontSize=23;fontStyle=1" parent="5yhpN9zNZQplvpEK3OU1-5" vertex="1">
          <mxGeometry x="29" width="89" height="49" as="geometry" />
        </mxCell>
        <mxCell id="5yhpN9zNZQplvpEK3OU1-8" value="" style="rounded=0;whiteSpace=wrap;html=1;fillColor=#e1d5e7;strokeColor=#9673a6;movable=1;resizable=1;rotatable=1;deletable=1;editable=1;locked=0;connectable=1;" parent="1" vertex="1">
          <mxGeometry x="610" y="-560" width="2840" height="360" as="geometry" />
        </mxCell>
        <mxCell id="5yhpN9zNZQplvpEK3OU1-9" value="" style="group" parent="1" vertex="1" connectable="0">
          <mxGeometry x="2770" y="-580" width="535" height="220" as="geometry" />
        </mxCell>
        <mxCell id="5yhpN9zNZQplvpEK3OU1-10" value="" style="rounded=1;whiteSpace=wrap;html=1;arcSize=5;fillColor=#fff2cc;strokeColor=#d6b656;" parent="5yhpN9zNZQplvpEK3OU1-9" vertex="1">
          <mxGeometry x="17" width="518" height="220" as="geometry" />
        </mxCell>
        <mxCell id="5yhpN9zNZQplvpEK3OU1-11" value="TurboPay" style="text;html=1;align=center;verticalAlign=middle;whiteSpace=wrap;rounded=1;shadow=0;fontSize=23;fontStyle=1" parent="5yhpN9zNZQplvpEK3OU1-9" vertex="1">
          <mxGeometry width="177" height="49" as="geometry" />
        </mxCell>
        <mxCell id="5yhpN9zNZQplvpEK3OU1-12" value="" style="group" parent="1" vertex="1" connectable="0">
          <mxGeometry x="2820" y="-520" width="518" height="224" as="geometry" />
        </mxCell>
        <mxCell id="5yhpN9zNZQplvpEK3OU1-13" value="" style="rounded=1;whiteSpace=wrap;html=1;arcSize=5;fillColor=#fff2cc;strokeColor=#d6b656;" parent="5yhpN9zNZQplvpEK3OU1-12" vertex="1">
          <mxGeometry width="518" height="224" as="geometry" />
        </mxCell>
        <mxCell id="5yhpN9zNZQplvpEK3OU1-14" value="FastMoney" style="text;html=1;align=center;verticalAlign=middle;whiteSpace=wrap;rounded=1;shadow=0;fontSize=23;fontStyle=1" parent="5yhpN9zNZQplvpEK3OU1-12" vertex="1">
          <mxGeometry x="2" width="141" height="49" as="geometry" />
        </mxCell>
        <mxCell id="5yhpN9zNZQplvpEK3OU1-15" value="" style="group" parent="1" vertex="1" connectable="0">
          <mxGeometry x="2850" y="-460" width="514" height="244" as="geometry" />
        </mxCell>
        <mxCell id="5yhpN9zNZQplvpEK3OU1-16" value="" style="rounded=1;whiteSpace=wrap;html=1;arcSize=5;fillColor=#fff2cc;strokeColor=#d6b656;" parent="5yhpN9zNZQplvpEK3OU1-15" vertex="1">
          <mxGeometry width="514" height="244" as="geometry" />
        </mxCell>
        <mxCell id="5yhpN9zNZQplvpEK3OU1-17" value="Яндекс.Pay" style="text;html=1;align=center;verticalAlign=middle;whiteSpace=wrap;rounded=1;shadow=0;fontSize=23;fontStyle=1" parent="5yhpN9zNZQplvpEK3OU1-15" vertex="1">
          <mxGeometry width="150" height="49" as="geometry" />
        </mxCell>
        <mxCell id="5yhpN9zNZQplvpEK3OU1-18" value="" style="rounded=1;whiteSpace=wrap;html=1;arcSize=0;" parent="1" vertex="1">
          <mxGeometry x="1095.5" y="2999.5" width="1128" height="343" as="geometry" />
        </mxCell>
        <mxCell id="5yhpN9zNZQplvpEK3OU1-22" value="&lt;p style=&quot;margin: 0px 0px 0px 13px; text-indent: -13px; font-variant-numeric: normal; font-variant-east-asian: normal; font-variant-alternates: normal; font-kerning: auto; font-optical-sizing: auto; font-feature-settings: normal; font-variation-settings: normal; font-variant-position: normal; font-stretch: normal; font-size: 14px; line-height: normal; color: rgb(14, 14, 14); text-align: start;&quot; class=&quot;p1&quot;&gt;&lt;font face=&quot;Times New Roman&quot;&gt;Заявка на аукцион.ID&lt;/font&gt;&lt;/p&gt;" style="rounded=1;whiteSpace=wrap;html=1;fillColor=#b1ddf0;strokeColor=#10739e;" parent="1" vertex="1">
          <mxGeometry x="2299" y="2176" width="151" height="21" as="geometry" />
        </mxCell>
        <mxCell id="5yhpN9zNZQplvpEK3OU1-23" value="&lt;p style=&quot;margin: 0px 0px 0px 13px; text-indent: -13px; font-variant-numeric: normal; font-variant-east-asian: normal; font-variant-alternates: normal; font-kerning: auto; font-optical-sizing: auto; font-feature-settings: normal; font-variation-settings: normal; font-variant-position: normal; font-stretch: normal; line-height: normal; color: rgb(14, 14, 14); text-align: start;&quot; class=&quot;p1&quot;&gt;&lt;font style=&quot;font-size: 14px;&quot; face=&quot;Times New Roman&quot;&gt;Заявка на регистрацию&lt;/font&gt;&lt;/p&gt;" style="rounded=1;whiteSpace=wrap;html=1;fillColor=#b1ddf0;strokeColor=#10739e;" parent="1" vertex="1">
          <mxGeometry x="900" y="788.25" width="150" height="21" as="geometry" />
        </mxCell>
        <mxCell id="5yhpN9zNZQplvpEK3OU1-24" value="&lt;p style=&quot;margin: 0px 0px 0px 13px; text-indent: -13px; font-variant-numeric: normal; font-variant-east-asian: normal; font-variant-alternates: normal; font-kerning: auto; font-optical-sizing: auto; font-feature-settings: normal; font-variation-settings: normal; font-variant-position: normal; font-stretch: normal; line-height: normal; color: rgb(14, 14, 14); text-align: start;&quot; class=&quot;p1&quot;&gt;&lt;font face=&quot;Times New Roman&quot;&gt;&lt;span style=&quot;font-size: 14px;&quot;&gt;JWT&lt;/span&gt;&lt;/font&gt;&lt;/p&gt;" style="rounded=1;whiteSpace=wrap;html=1;fillColor=#b1ddf0;strokeColor=#10739e;" parent="1" vertex="1">
          <mxGeometry x="941.5" y="715.5" width="49" height="21" as="geometry" />
        </mxCell>
        <mxCell id="5yhpN9zNZQplvpEK3OU1-25" value="&lt;p style=&quot;margin: 0px 0px 0px 13px; text-indent: -13px; font-variant-numeric: normal; font-variant-east-asian: normal; font-variant-alternates: normal; font-kerning: auto; font-optical-sizing: auto; font-feature-settings: normal; font-variation-settings: normal; font-variant-position: normal; font-stretch: normal; font-size: 14px; line-height: normal; color: rgb(14, 14, 14); text-align: start;&quot; class=&quot;p1&quot;&gt;&lt;font face=&quot;Times New Roman&quot;&gt;Пользователь.Роль&lt;/font&gt;&lt;/p&gt;" style="rounded=1;whiteSpace=wrap;html=1;fillColor=#b1ddf0;strokeColor=#10739e;" parent="1" vertex="1">
          <mxGeometry x="1415.5" y="601.25" width="151" height="21" as="geometry" />
        </mxCell>
        <mxCell id="5yhpN9zNZQplvpEK3OU1-26" value="&lt;p style=&quot;margin: 0px 0px 0px 13px; text-indent: -13px; font-variant-numeric: normal; font-variant-east-asian: normal; font-variant-alternates: normal; font-kerning: auto; font-optical-sizing: auto; font-feature-settings: normal; font-variation-settings: normal; font-variant-position: normal; font-stretch: normal; font-size: 14px; line-height: normal; color: rgb(14, 14, 14); text-align: start;&quot; class=&quot;p1&quot;&gt;&lt;font face=&quot;Times New Roman&quot;&gt;Пользователь.ID&lt;/font&gt;&lt;/p&gt;" style="rounded=1;whiteSpace=wrap;html=1;fillColor=#b1ddf0;strokeColor=#10739e;" parent="1" vertex="1">
          <mxGeometry x="900" y="658.75" width="151" height="21" as="geometry" />
        </mxCell>
        <mxCell id="5yhpN9zNZQplvpEK3OU1-27" value="&lt;p style=&quot;margin: 0px 0px 0px 13px; text-indent: -13px; font-variant-numeric: normal; font-variant-east-asian: normal; font-variant-alternates: normal; font-kerning: auto; font-optical-sizing: auto; font-feature-settings: normal; font-variation-settings: normal; font-variant-position: normal; font-stretch: normal; font-size: 14px; line-height: normal; color: rgb(14, 14, 14); text-align: start;&quot; class=&quot;p1&quot;&gt;&lt;font face=&quot;Times New Roman&quot;&gt;Пользователь.Имя&lt;/font&gt;&lt;/p&gt;" style="rounded=1;whiteSpace=wrap;html=1;fillColor=#b1ddf0;strokeColor=#10739e;" parent="1" vertex="1">
          <mxGeometry x="1431.5" y="747.5" width="119" height="21" as="geometry" />
        </mxCell>
        <mxCell id="5yhpN9zNZQplvpEK3OU1-28" value="&lt;p style=&quot;margin: 0px 0px 0px 13px; text-indent: -13px; font-variant-numeric: normal; font-variant-east-asian: normal; font-variant-alternates: normal; font-kerning: auto; font-optical-sizing: auto; font-feature-settings: normal; font-variation-settings: normal; font-variant-position: normal; font-stretch: normal; font-size: 14px; line-height: normal; color: rgb(14, 14, 14); text-align: start;&quot; class=&quot;p1&quot;&gt;&lt;font face=&quot;Times New Roman&quot;&gt;Пользователь.Фамилия&lt;/font&gt;&lt;/p&gt;" style="rounded=1;whiteSpace=wrap;html=1;fillColor=#b1ddf0;strokeColor=#10739e;" parent="1" vertex="1">
          <mxGeometry x="1419.5" y="673.5" width="151" height="21" as="geometry" />
        </mxCell>
        <mxCell id="5yhpN9zNZQplvpEK3OU1-29" value="&lt;p style=&quot;margin: 0px 0px 0px 13px; text-indent: -13px; font-variant-numeric: normal; font-variant-east-asian: normal; font-variant-alternates: normal; font-kerning: auto; font-optical-sizing: auto; font-feature-settings: normal; font-variation-settings: normal; font-variant-position: normal; font-stretch: normal; font-size: 14px; line-height: normal; color: rgb(14, 14, 14); text-align: start;&quot; class=&quot;p1&quot;&gt;&lt;font face=&quot;Times New Roman&quot;&gt;Пользователь.Адрес&lt;/font&gt;&lt;/p&gt;" style="rounded=1;whiteSpace=wrap;html=1;fillColor=#b1ddf0;strokeColor=#10739e;" parent="1" vertex="1">
          <mxGeometry x="1428" y="709.5" width="130" height="21" as="geometry" />
        </mxCell>
        <mxCell id="5yhpN9zNZQplvpEK3OU1-30" value="&lt;p style=&quot;margin: 0px 0px 0px 13px; text-indent: -13px; font-variant-numeric: normal; font-variant-east-asian: normal; font-variant-alternates: normal; font-kerning: auto; font-optical-sizing: auto; font-feature-settings: normal; font-variation-settings: normal; font-variant-position: normal; font-stretch: normal; font-size: 14px; line-height: normal; color: rgb(14, 14, 14); text-align: start;&quot; class=&quot;p1&quot;&gt;&lt;font face=&quot;Times New Roman&quot;&gt;Пользователь.Дата регистрации&lt;/font&gt;&lt;/p&gt;" style="rounded=1;whiteSpace=wrap;html=1;fillColor=#b1ddf0;strokeColor=#10739e;" parent="1" vertex="1">
          <mxGeometry x="890" y="690.25" width="199" height="21" as="geometry" />
        </mxCell>
        <mxCell id="5yhpN9zNZQplvpEK3OU1-31" value="&lt;p style=&quot;margin: 0px 0px 0px 13px; text-indent: -13px; font-variant-numeric: normal; font-variant-east-asian: normal; font-variant-alternates: normal; font-kerning: auto; font-optical-sizing: auto; font-feature-settings: normal; font-variation-settings: normal; font-variant-position: normal; font-stretch: normal; font-size: 14px; line-height: normal; color: rgb(14, 14, 14); text-align: start;&quot; class=&quot;p1&quot;&gt;&lt;font face=&quot;Times New Roman&quot;&gt;Пользователь.Статус&lt;/font&gt;&lt;/p&gt;" style="rounded=1;whiteSpace=wrap;html=1;fillColor=#b1ddf0;strokeColor=#10739e;" parent="1" vertex="1">
          <mxGeometry x="1420.5" y="778.5" width="136" height="21" as="geometry" />
        </mxCell>
        <mxCell id="5yhpN9zNZQplvpEK3OU1-32" value="&lt;p style=&quot;margin: 0px 0px 0px 13px; text-indent: -13px; font-variant-numeric: normal; font-variant-east-asian: normal; font-variant-alternates: normal; font-kerning: auto; font-optical-sizing: auto; font-feature-settings: normal; font-variation-settings: normal; font-variant-position: normal; font-stretch: normal; font-size: 14px; line-height: normal; color: rgb(14, 14, 14); text-align: start;&quot; class=&quot;p1&quot;&gt;&lt;font face=&quot;Times New Roman&quot;&gt;Пользователь.Электронная почта&lt;/font&gt;&lt;/p&gt;" style="rounded=1;whiteSpace=wrap;html=1;fillColor=#b1ddf0;strokeColor=#10739e;" parent="1" vertex="1">
          <mxGeometry x="1390.5" y="811.5" width="209" height="21" as="geometry" />
        </mxCell>
        <mxCell id="5yhpN9zNZQplvpEK3OU1-33" value="&lt;p style=&quot;margin: 0px 0px 0px 13px; text-indent: -13px; font-variant-numeric: normal; font-variant-east-asian: normal; font-variant-alternates: normal; font-kerning: auto; font-optical-sizing: auto; font-feature-settings: normal; font-variation-settings: normal; font-variant-position: normal; font-stretch: normal; font-size: 14px; line-height: normal; color: rgb(14, 14, 14); text-align: start;&quot; class=&quot;p1&quot;&gt;&lt;font face=&quot;Times New Roman&quot;&gt;Пользователь.Номер телефона&lt;/font&gt;&lt;/p&gt;" style="rounded=1;whiteSpace=wrap;html=1;fillColor=#b1ddf0;strokeColor=#10739e;" parent="1" vertex="1">
          <mxGeometry x="1400" y="636" width="190" height="21" as="geometry" />
        </mxCell>
        <mxCell id="5yhpN9zNZQplvpEK3OU1-34" value="&lt;p style=&quot;margin: 0px 0px 0px 13px; text-indent: -13px; font-variant-numeric: normal; font-variant-east-asian: normal; font-variant-alternates: normal; font-kerning: auto; font-optical-sizing: auto; font-feature-settings: normal; font-variation-settings: normal; font-variant-position: normal; font-stretch: normal; font-size: 14px; line-height: normal; color: rgb(14, 14, 14); text-align: start;&quot; class=&quot;p1&quot;&gt;&lt;font face=&quot;Times New Roman&quot;&gt;Торговая площадка.ID&lt;/font&gt;&lt;/p&gt;" style="rounded=1;whiteSpace=wrap;html=1;fillColor=#b1ddf0;strokeColor=#10739e;" parent="1" vertex="1">
          <mxGeometry x="2299" y="2149" width="144.5" height="21" as="geometry" />
        </mxCell>
        <mxCell id="5yhpN9zNZQplvpEK3OU1-35" value="&lt;p style=&quot;margin: 0px 0px 0px 13px; text-indent: -13px; font-variant-numeric: normal; font-variant-east-asian: normal; font-variant-alternates: normal; font-kerning: auto; font-optical-sizing: auto; font-feature-settings: normal; font-variation-settings: normal; font-variant-position: normal; font-stretch: normal; font-size: 14px; line-height: normal; color: rgb(14, 14, 14); text-align: start;&quot; class=&quot;p1&quot;&gt;&lt;font face=&quot;Times New Roman&quot;&gt;Торговая площадка.Наименование&lt;/font&gt;&lt;/p&gt;" style="rounded=1;whiteSpace=wrap;html=1;fillColor=#b1ddf0;strokeColor=#10739e;" parent="1" vertex="1">
          <mxGeometry x="2257" y="2207.5" width="214" height="21" as="geometry" />
        </mxCell>
        <mxCell id="5yhpN9zNZQplvpEK3OU1-36" value="&lt;p style=&quot;margin: 0px 0px 0px 13px; text-indent: -13px; font-variant-numeric: normal; font-variant-east-asian: normal; font-variant-alternates: normal; font-kerning: auto; font-optical-sizing: auto; font-feature-settings: normal; font-variation-settings: normal; font-variant-position: normal; font-stretch: normal; font-size: 14px; line-height: normal; color: rgb(14, 14, 14); text-align: start;&quot; class=&quot;p1&quot;&gt;&lt;font face=&quot;Times New Roman&quot;&gt;Пользователь.Активен&lt;/font&gt;&lt;/p&gt;" style="rounded=1;whiteSpace=wrap;html=1;fillColor=#b1ddf0;strokeColor=#10739e;" parent="1" vertex="1">
          <mxGeometry x="901.5" y="752.5" width="147" height="21" as="geometry" />
        </mxCell>
        <mxCell id="5yhpN9zNZQplvpEK3OU1-37" value="&lt;p style=&quot;margin: 0px 0px 0px 13px; text-indent: -13px; font-variant-numeric: normal; font-variant-east-asian: normal; font-variant-alternates: normal; font-kerning: auto; font-optical-sizing: auto; font-feature-settings: normal; font-variation-settings: normal; font-variant-position: normal; font-stretch: normal; font-size: 14px; line-height: normal; color: rgb(14, 14, 14); text-align: start;&quot; class=&quot;p1&quot;&gt;&lt;font face=&quot;Times New Roman&quot;&gt;Услуга.ID&lt;/font&gt;&lt;/p&gt;" style="rounded=1;whiteSpace=wrap;html=1;fillColor=#b1ddf0;strokeColor=#10739e;" parent="1" vertex="1">
          <mxGeometry x="2582" y="2232.75" width="87" height="21" as="geometry" />
        </mxCell>
        <mxCell id="5yhpN9zNZQplvpEK3OU1-38" value="&lt;p style=&quot;margin: 0px 0px 0px 13px; text-indent: -13px; font-variant-numeric: normal; font-variant-east-asian: normal; font-variant-alternates: normal; font-kerning: auto; font-optical-sizing: auto; font-feature-settings: normal; font-variation-settings: normal; font-variant-position: normal; font-stretch: normal; font-size: 14px; line-height: normal; color: rgb(14, 14, 14); text-align: start;&quot; class=&quot;p1&quot;&gt;&lt;font face=&quot;Times New Roman&quot;&gt;Услуга.Название&lt;/font&gt;&lt;/p&gt;" style="rounded=1;whiteSpace=wrap;html=1;fillColor=#b1ddf0;strokeColor=#10739e;" parent="1" vertex="1">
          <mxGeometry x="2649.5" y="2264.75" width="110" height="21" as="geometry" />
        </mxCell>
        <mxCell id="5yhpN9zNZQplvpEK3OU1-39" value="&lt;p style=&quot;margin: 0px 0px 0px 13px; text-indent: -13px; font-variant-numeric: normal; font-variant-east-asian: normal; font-variant-alternates: normal; font-kerning: auto; font-optical-sizing: auto; font-feature-settings: normal; font-variation-settings: normal; font-variant-position: normal; font-stretch: normal; font-size: 14px; line-height: normal; color: rgb(14, 14, 14); text-align: start;&quot; class=&quot;p1&quot;&gt;&lt;font face=&quot;Times New Roman&quot;&gt;Услуга. Описание&lt;/font&gt;&lt;/p&gt;" style="rounded=1;whiteSpace=wrap;html=1;fillColor=#b1ddf0;strokeColor=#10739e;" parent="1" vertex="1">
          <mxGeometry x="2648.5" y="2199.75" width="112" height="21" as="geometry" />
        </mxCell>
        <mxCell id="5yhpN9zNZQplvpEK3OU1-40" value="&lt;p style=&quot;margin: 0px 0px 0px 13px; text-indent: -13px; font-variant-numeric: normal; font-variant-east-asian: normal; font-variant-alternates: normal; font-kerning: auto; font-optical-sizing: auto; font-feature-settings: normal; font-variation-settings: normal; font-variant-position: normal; font-stretch: normal; font-size: 14px; line-height: normal; color: rgb(14, 14, 14); text-align: start;&quot; class=&quot;p1&quot;&gt;&lt;font face=&quot;Times New Roman&quot;&gt;Товар.ID&lt;/font&gt;&lt;/p&gt;" style="rounded=1;whiteSpace=wrap;html=1;fillColor=#b1ddf0;strokeColor=#10739e;" parent="1" vertex="1">
          <mxGeometry x="2760.5" y="2232.75" width="78" height="27.5" as="geometry" />
        </mxCell>
        <mxCell id="5yhpN9zNZQplvpEK3OU1-41" value="&lt;p style=&quot;margin: 0px 0px 0px 13px; text-indent: -13px; font-variant-numeric: normal; font-variant-east-asian: normal; font-variant-alternates: normal; font-kerning: auto; font-optical-sizing: auto; font-feature-settings: normal; font-variation-settings: normal; font-variant-position: normal; font-stretch: normal; font-size: 14px; line-height: normal; color: rgb(14, 14, 14); text-align: start;&quot; class=&quot;p1&quot;&gt;&lt;font face=&quot;Times New Roman&quot;&gt;Товар.Название&lt;/font&gt;&lt;/p&gt;" style="rounded=1;whiteSpace=wrap;html=1;fillColor=#b1ddf0;strokeColor=#10739e;" parent="1" vertex="1">
          <mxGeometry x="2739" y="2178.75" width="111" height="21" as="geometry" />
        </mxCell>
        <mxCell id="5yhpN9zNZQplvpEK3OU1-42" value="&lt;p style=&quot;margin: 0px 0px 0px 13px; text-indent: -13px; font-variant-numeric: normal; font-variant-east-asian: normal; font-variant-alternates: normal; font-kerning: auto; font-optical-sizing: auto; font-feature-settings: normal; font-variation-settings: normal; font-variant-position: normal; font-stretch: normal; font-size: 14px; line-height: normal; color: rgb(14, 14, 14); text-align: start;&quot; class=&quot;p1&quot;&gt;&lt;font face=&quot;Times New Roman&quot;&gt;Товар.Описание&lt;/font&gt;&lt;/p&gt;" style="rounded=1;whiteSpace=wrap;html=1;fillColor=#b1ddf0;strokeColor=#10739e;" parent="1" vertex="1">
          <mxGeometry x="2590" y="2128" width="107" height="21" as="geometry" />
        </mxCell>
        <mxCell id="5yhpN9zNZQplvpEK3OU1-45" value="WAN" style="text;html=1;align=center;verticalAlign=middle;whiteSpace=wrap;rounded=1;shadow=0;fontSize=23;fontStyle=1" parent="1" vertex="1">
          <mxGeometry x="960" y="-600" width="85" height="49" as="geometry" />
        </mxCell>
        <mxCell id="5yhpN9zNZQplvpEK3OU1-46" value="LAN" style="text;html=1;align=center;verticalAlign=middle;whiteSpace=wrap;rounded=1;shadow=0;fontSize=23;fontStyle=1" parent="1" vertex="1">
          <mxGeometry x="960" y="-200" width="85" height="49" as="geometry" />
        </mxCell>
        <mxCell id="5yhpN9zNZQplvpEK3OU1-47" value="" style="endArrow=classic;html=1;rounded=1;curved=0;entryX=1.001;entryY=0.222;entryDx=0;entryDy=0;entryPerimeter=0;exitX=0.972;exitY=1;exitDx=0;exitDy=0;exitPerimeter=0;" parent="1" source="5yhpN9zNZQplvpEK3OU1-8" edge="1">
          <mxGeometry width="50" height="50" relative="1" as="geometry">
            <mxPoint x="3750" y="668.76" as="sourcePoint" />
            <mxPoint x="3366.451" y="1158.9219999999998" as="targetPoint" />
            <Array as="points">
              <mxPoint x="3750" y="1158.76" />
            </Array>
          </mxGeometry>
        </mxCell>
        <mxCell id="5yhpN9zNZQplvpEK3OU1-48" value="&lt;p style=&quot;margin: 0px 0px 0px 21px; text-indent: -21px; font-variant-numeric: normal; font-variant-east-asian: normal; font-variant-alternates: normal; font-kerning: auto; font-optical-sizing: auto; font-feature-settings: normal; font-variation-settings: normal; font-variant-position: normal; font-stretch: normal; line-height: normal; color: rgb(14, 14, 14); text-align: start; text-wrap: wrap;&quot; class=&quot;p1&quot;&gt;&lt;font style=&quot;font-size: 12px;&quot; face=&quot;Helvetica&quot;&gt;Подтверждение платежа&lt;/font&gt;&lt;/p&gt;" style="edgeLabel;html=1;align=center;verticalAlign=middle;resizable=0;points=[];rounded=1;" parent="5yhpN9zNZQplvpEK3OU1-47" vertex="1" connectable="0">
          <mxGeometry x="0.1936" y="1" relative="1" as="geometry">
            <mxPoint x="-269" y="39" as="offset" />
          </mxGeometry>
        </mxCell>
        <mxCell id="5yhpN9zNZQplvpEK3OU1-49" value="" style="endArrow=classic;html=1;rounded=1;exitX=1.001;exitY=0.325;exitDx=0;exitDy=0;exitPerimeter=0;curved=0;entryX=0.989;entryY=1.005;entryDx=0;entryDy=0;entryPerimeter=0;" parent="1" target="5yhpN9zNZQplvpEK3OU1-8" edge="1">
          <mxGeometry width="50" height="50" relative="1" as="geometry">
            <mxPoint x="3366.451" y="1238.3349999999998" as="sourcePoint" />
            <mxPoint x="3829.5199999999995" y="663.0039999999997" as="targetPoint" />
            <Array as="points">
              <mxPoint x="3830" y="1238.76" />
            </Array>
          </mxGeometry>
        </mxCell>
        <mxCell id="5yhpN9zNZQplvpEK3OU1-50" value="&lt;font style=&quot;font-size: 12px;&quot;&gt;Б.6&amp;nbsp;&lt;/font&gt;&lt;div&gt;&lt;font style=&quot;font-size: 12px;&quot;&gt;Предоставить статус платежа&lt;/font&gt;&lt;/div&gt;" style="edgeLabel;html=1;align=center;verticalAlign=middle;resizable=0;points=[];rounded=1;" parent="5yhpN9zNZQplvpEK3OU1-49" vertex="1" connectable="0">
          <mxGeometry x="0.1936" y="1" relative="1" as="geometry">
            <mxPoint x="-115" y="65" as="offset" />
          </mxGeometry>
        </mxCell>
        <mxCell id="5yhpN9zNZQplvpEK3OU1-51" value="" style="endArrow=classic;html=1;rounded=1;curved=0;exitX=1;exitY=0.901;exitDx=0;exitDy=0;exitPerimeter=0;entryX=1;entryY=1;entryDx=0;entryDy=0;" parent="1" source="5yhpN9zNZQplvpEK3OU1-8" target="5yhpN9zNZQplvpEK3OU1-491" edge="1">
          <mxGeometry width="50" height="50" relative="1" as="geometry">
            <mxPoint x="3990" y="668.76" as="sourcePoint" />
            <mxPoint x="3320" y="1340" as="targetPoint" />
            <Array as="points">
              <mxPoint x="3990" y="1398.7600000000002" />
            </Array>
          </mxGeometry>
        </mxCell>
        <mxCell id="5yhpN9zNZQplvpEK3OU1-52" value="&lt;font style=&quot;font-size: 12px;&quot;&gt;Подтверждение отмены&amp;nbsp;&lt;/font&gt;&lt;div&gt;&lt;font style=&quot;font-size: 12px;&quot;&gt;платежа&lt;/font&gt;&lt;/div&gt;" style="edgeLabel;html=1;align=center;verticalAlign=middle;resizable=0;points=[];rounded=1;" parent="5yhpN9zNZQplvpEK3OU1-51" vertex="1" connectable="0">
          <mxGeometry x="0.1936" y="1" relative="1" as="geometry">
            <mxPoint x="-262" y="-41" as="offset" />
          </mxGeometry>
        </mxCell>
        <mxCell id="5yhpN9zNZQplvpEK3OU1-53" value="" style="endArrow=classic;html=1;rounded=1;exitX=1;exitY=0.117;exitDx=0;exitDy=0;exitPerimeter=0;curved=0;" parent="1" edge="1">
          <mxGeometry width="50" height="50" relative="1" as="geometry">
            <mxPoint x="3364.999999999999" y="1077.9669999999999" as="sourcePoint" />
            <mxPoint x="3330" y="-190" as="targetPoint" />
            <Array as="points">
              <mxPoint x="3590" y="1078.76" />
            </Array>
          </mxGeometry>
        </mxCell>
        <mxCell id="5yhpN9zNZQplvpEK3OU1-54" value="&lt;span style=&quot;text-wrap: wrap;&quot;&gt;&lt;font style=&quot;font-size: 12px;&quot;&gt;Б.5 Инициировать платёж&lt;/font&gt;&lt;/span&gt;" style="edgeLabel;html=1;align=center;verticalAlign=middle;resizable=0;points=[];rounded=1;" parent="5yhpN9zNZQplvpEK3OU1-53" vertex="1" connectable="0">
          <mxGeometry x="0.1936" y="1" relative="1" as="geometry">
            <mxPoint x="58" y="61" as="offset" />
          </mxGeometry>
        </mxCell>
        <mxCell id="5yhpN9zNZQplvpEK3OU1-57" value="&lt;font style=&quot;font-size: 12px;&quot;&gt;[Пользователь.ID]&lt;/font&gt;" style="text;html=1;align=center;verticalAlign=middle;whiteSpace=wrap;rounded=1;fontSize=13;labelBackgroundColor=none;fontColor=#007575;" parent="1" vertex="1">
          <mxGeometry x="3390" y="1028.76" width="160" height="30" as="geometry" />
        </mxCell>
        <mxCell id="5yhpN9zNZQplvpEK3OU1-58" value="&lt;font style=&quot;font-size: 12px;&quot;&gt;[Заказ.ID]&lt;/font&gt;" style="text;html=1;align=center;verticalAlign=middle;whiteSpace=wrap;rounded=1;fontSize=13;labelBackgroundColor=none;fontColor=#007575;" parent="1" vertex="1">
          <mxGeometry x="3350" y="1048.76" width="160" height="30" as="geometry" />
        </mxCell>
        <mxCell id="5yhpN9zNZQplvpEK3OU1-59" value="&lt;font style=&quot;font-size: 12px;&quot;&gt;[Заказ.Сумма]&lt;/font&gt;" style="text;html=1;align=center;verticalAlign=middle;whiteSpace=wrap;rounded=1;fontSize=13;labelBackgroundColor=none;fontColor=#007575;" parent="1" vertex="1">
          <mxGeometry x="3420" y="1048.76" width="160" height="30" as="geometry" />
        </mxCell>
        <mxCell id="5yhpN9zNZQplvpEK3OU1-60" value="&lt;font style=&quot;font-size: 12px;&quot;&gt;[Транзакция.ID]&lt;/font&gt;" style="text;html=1;align=center;verticalAlign=middle;whiteSpace=wrap;rounded=1;fontSize=13;labelBackgroundColor=none;fontColor=#B8B8B8;" parent="1" vertex="1">
          <mxGeometry x="3400" y="1208.76" width="100" height="30" as="geometry" />
        </mxCell>
        <mxCell id="5yhpN9zNZQplvpEK3OU1-61" value="" style="endArrow=classic;html=1;rounded=1;exitX=1;exitY=0.429;exitDx=0;exitDy=0;exitPerimeter=0;curved=0;entryX=1;entryY=1;entryDx=0;entryDy=0;" parent="1" source="5yhpN9zNZQplvpEK3OU1-69" target="5yhpN9zNZQplvpEK3OU1-8" edge="1">
          <mxGeometry width="50" height="50" relative="1" as="geometry">
            <mxPoint x="3370" y="1322.7600000000002" as="sourcePoint" />
            <mxPoint x="3910.218" y="663.9799999999998" as="targetPoint" />
            <Array as="points">
              <mxPoint x="3910" y="1318.7600000000002" />
            </Array>
          </mxGeometry>
        </mxCell>
        <mxCell id="5yhpN9zNZQplvpEK3OU1-62" value="&lt;font style=&quot;font-size: 12px;&quot;&gt;Запросить статус платежа&lt;/font&gt;" style="edgeLabel;html=1;align=center;verticalAlign=middle;resizable=0;points=[];rounded=1;" parent="5yhpN9zNZQplvpEK3OU1-61" vertex="1" connectable="0">
          <mxGeometry x="-0.4407" y="-1" relative="1" as="geometry">
            <mxPoint x="-246" y="-31" as="offset" />
          </mxGeometry>
        </mxCell>
        <mxCell id="5yhpN9zNZQplvpEK3OU1-63" value="&lt;font style=&quot;font-size: 12px;&quot;&gt;[Транзакция.ID]&lt;/font&gt;" style="text;html=1;align=center;verticalAlign=middle;whiteSpace=wrap;rounded=1;fontSize=13;labelBackgroundColor=none;fontColor=#B8B8B8;" parent="1" vertex="1">
          <mxGeometry x="3400" y="1288.76" width="100" height="30" as="geometry" />
        </mxCell>
        <mxCell id="5yhpN9zNZQplvpEK3OU1-65" value="1" style="ellipse;whiteSpace=wrap;html=1;aspect=fixed;rounded=1;fillColor=#FF77BF;" parent="1" vertex="1">
          <mxGeometry x="3350" y="1068.76" width="23" height="23" as="geometry" />
        </mxCell>
        <mxCell id="5yhpN9zNZQplvpEK3OU1-66" value="2" style="ellipse;whiteSpace=wrap;html=1;aspect=fixed;rounded=1;fillColor=#FF77BF;" parent="1" vertex="1">
          <mxGeometry x="3110" y="-230" width="23" height="23" as="geometry" />
        </mxCell>
        <mxCell id="5yhpN9zNZQplvpEK3OU1-67" value="3" style="ellipse;whiteSpace=wrap;html=1;aspect=fixed;rounded=1;fillColor=#ff77bf;" parent="1" vertex="1">
          <mxGeometry x="3350" y="1228.76" width="23" height="23" as="geometry" />
        </mxCell>
        <mxCell id="5yhpN9zNZQplvpEK3OU1-68" value="" style="endArrow=classic;html=1;rounded=1;exitX=1;exitY=0.429;exitDx=0;exitDy=0;exitPerimeter=0;curved=0;entryX=0.837;entryY=1.005;entryDx=0;entryDy=0;entryPerimeter=0;" parent="1" target="5yhpN9zNZQplvpEK3OU1-69" edge="1">
          <mxGeometry width="50" height="50" relative="1" as="geometry">
            <mxPoint x="3364.999999999999" y="1318.5190000000002" as="sourcePoint" />
            <mxPoint x="3910" y="853.76" as="targetPoint" />
            <Array as="points" />
          </mxGeometry>
        </mxCell>
        <mxCell id="5yhpN9zNZQplvpEK3OU1-69" value="4" style="ellipse;whiteSpace=wrap;html=1;aspect=fixed;rounded=1;fillColor=#FF77BF;" parent="1" vertex="1">
          <mxGeometry x="3350" y="1308.76" width="23" height="23" as="geometry" />
        </mxCell>
        <mxCell id="5yhpN9zNZQplvpEK3OU1-70" value="5" style="ellipse;whiteSpace=wrap;html=1;aspect=fixed;rounded=1;fillColor=#FF77BF;" parent="1" vertex="1">
          <mxGeometry x="3350" y="-230" width="23" height="23" as="geometry" />
        </mxCell>
        <mxCell id="5yhpN9zNZQplvpEK3OU1-71" value="" style="strokeWidth=2;html=1;shape=mxgraph.flowchart.database;whiteSpace=wrap;rounded=1;movable=1;resizable=1;rotatable=1;deletable=1;editable=1;locked=0;connectable=1;" parent="1" vertex="1">
          <mxGeometry x="3130" y="-400" width="220" height="171" as="geometry" />
        </mxCell>
        <mxCell id="5yhpN9zNZQplvpEK3OU1-74" value="&lt;p style=&quot;margin: 0px 0px 0px 13px; text-indent: -13px; font-variant-numeric: normal; font-variant-east-asian: normal; font-variant-alternates: normal; font-kerning: auto; font-optical-sizing: auto; font-feature-settings: normal; font-variation-settings: normal; font-variant-position: normal; font-stretch: normal; font-size: 14px; line-height: normal; text-align: start;&quot; class=&quot;p1&quot;&gt;&lt;span style=&quot;font-size: 12px; text-align: center; text-indent: 0px;&quot;&gt;[Транзакция.Статус]&lt;/span&gt;&lt;br&gt;&lt;/p&gt;" style="rounded=1;whiteSpace=wrap;html=1;fillColor=#B8B8B8;strokeColor=#FFD966;" parent="1" vertex="1">
          <mxGeometry x="3180" y="-310" width="119" height="21" as="geometry" />
        </mxCell>
        <mxCell id="5yhpN9zNZQplvpEK3OU1-75" value="&lt;p style=&quot;margin: 0px 0px 0px 13px; text-indent: -13px; font-variant-numeric: normal; font-variant-east-asian: normal; font-variant-alternates: normal; font-kerning: auto; font-optical-sizing: auto; font-feature-settings: normal; font-variation-settings: normal; font-variant-position: normal; font-stretch: normal; font-size: 14px; line-height: normal; text-align: start;&quot; class=&quot;p1&quot;&gt;&lt;span style=&quot;font-size: 12px; text-align: center; text-indent: 0px;&quot;&gt;[Транзакция.ID]&lt;/span&gt;&lt;br&gt;&lt;/p&gt;" style="rounded=1;whiteSpace=wrap;html=1;fillColor=#B8B8B8;strokeColor=#FFD966;" parent="1" vertex="1">
          <mxGeometry x="3180" y="-280" width="119" height="21" as="geometry" />
        </mxCell>
        <mxCell id="sdnIlh2cug-v7nJpGOBW-6" value="&lt;font style=&quot;font-size: 11px;&quot;&gt;А.1 Передача данных с фронта для создания пользователя и начальных товаров&lt;/font&gt;" style="edgeStyle=orthogonalEdgeStyle;rounded=0;orthogonalLoop=1;jettySize=auto;html=1;exitX=0.5;exitY=1;exitDx=0;exitDy=0;strokeColor=#ff0000;strokeWidth=1;fontSize=11;fontColor=#ff0000;" parent="1" source="5yhpN9zNZQplvpEK3OU1-80" target="5yhpN9zNZQplvpEK3OU1-472" edge="1">
          <mxGeometry x="0.0016" relative="1" as="geometry">
            <mxPoint as="offset" />
          </mxGeometry>
        </mxCell>
        <mxCell id="sdnIlh2cug-v7nJpGOBW-11" value="Б.2. Данные с фронта об оплате товара" style="edgeStyle=orthogonalEdgeStyle;rounded=0;orthogonalLoop=1;jettySize=auto;html=1;strokeColor=#FF0505;fontColor=#ff0000;" parent="1" source="5yhpN9zNZQplvpEK3OU1-80" edge="1">
          <mxGeometry x="-0.1282" y="-10" relative="1" as="geometry">
            <mxPoint x="1860" y="830" as="targetPoint" />
            <Array as="points">
              <mxPoint x="1860" y="250" />
              <mxPoint x="1860" y="250" />
            </Array>
            <mxPoint as="offset" />
          </mxGeometry>
        </mxCell>
        <mxCell id="sdnIlh2cug-v7nJpGOBW-13" value="Б.1 Авторизация.&amp;nbsp;" style="edgeStyle=orthogonalEdgeStyle;rounded=0;orthogonalLoop=1;jettySize=auto;html=1;fontColor=#ff0000;strokeColor=#FF1212;" parent="1" source="5yhpN9zNZQplvpEK3OU1-80" target="5yhpN9zNZQplvpEK3OU1-351" edge="1">
          <mxGeometry relative="1" as="geometry">
            <Array as="points">
              <mxPoint x="975" y="50" />
            </Array>
          </mxGeometry>
        </mxCell>
        <mxCell id="5yhpN9zNZQplvpEK3OU1-80" value="" style="rounded=1;whiteSpace=wrap;html=1;arcSize=3;fillColor=#f5f5f5;strokeColor=#1C57CD;strokeWidth=3;align=center;verticalAlign=middle;fontFamily=Helvetica;fontSize=12;fontColor=#333333;resizable=1;" parent="1" vertex="1">
          <mxGeometry x="1670" y="-160" width="650" height="210" as="geometry" />
        </mxCell>
        <mxCell id="sdnIlh2cug-v7nJpGOBW-12" value="" style="edgeStyle=orthogonalEdgeStyle;rounded=0;orthogonalLoop=1;jettySize=auto;html=1;" parent="1" source="5yhpN9zNZQplvpEK3OU1-81" target="5yhpN9zNZQplvpEK3OU1-119" edge="1">
          <mxGeometry relative="1" as="geometry" />
        </mxCell>
        <mxCell id="5yhpN9zNZQplvpEK3OU1-81" value="Портал электронной площадки" style="text;html=1;align=center;verticalAlign=middle;whiteSpace=wrap;rounded=1;shadow=0;fontSize=23;fontStyle=1" parent="1" vertex="1">
          <mxGeometry x="1737" y="-158" width="380" height="49" as="geometry" />
        </mxCell>
        <mxCell id="5yhpN9zNZQplvpEK3OU1-82" value="&lt;p style=&quot;margin: 0px 0px 0px 13px; text-indent: -13px; font-variant-numeric: normal; font-variant-east-asian: normal; font-variant-alternates: normal; font-kerning: auto; font-optical-sizing: auto; font-feature-settings: normal; font-variation-settings: normal; font-variant-position: normal; font-stretch: normal; font-size: 14px; line-height: normal; color: rgb(14, 14, 14); text-align: start;&quot; class=&quot;p1&quot;&gt;&lt;font face=&quot;Times New Roman&quot;&gt;Объект данных&lt;/font&gt;&lt;/p&gt;" style="rounded=1;whiteSpace=wrap;html=1;fillColor=#b1ddf0;strokeColor=#10739e;" parent="1" vertex="1">
          <mxGeometry x="1526" y="3240" width="101" height="21" as="geometry" />
        </mxCell>
        <mxCell id="5yhpN9zNZQplvpEK3OU1-83" value="&lt;font style=&quot;font-size: 14px;&quot;&gt;СУБД&lt;/font&gt;" style="strokeWidth=2;html=1;shape=mxgraph.flowchart.database;whiteSpace=wrap;rounded=1;movable=1;resizable=1;rotatable=1;deletable=1;editable=1;locked=0;connectable=1;" parent="1" vertex="1">
          <mxGeometry x="1515" y="3105" width="137" height="87" as="geometry" />
        </mxCell>
        <mxCell id="5yhpN9zNZQplvpEK3OU1-84" value="Пользователь (Роль)" style="shape=umlActor;verticalLabelPosition=bottom;verticalAlign=top;html=1;outlineConnect=0;rounded=1;" parent="1" vertex="1">
          <mxGeometry x="2118" y="3072" width="65" height="141" as="geometry" />
        </mxCell>
        <mxCell id="5yhpN9zNZQplvpEK3OU1-85" value="&lt;p style=&quot;margin: 0px 0px 0px 13px; text-indent: -13px; font-variant-numeric: normal; font-variant-east-asian: normal; font-variant-alternates: normal; font-kerning: auto; font-optical-sizing: auto; font-feature-settings: normal; font-variation-settings: normal; font-variant-position: normal; font-stretch: normal; line-height: normal; text-align: start;&quot; class=&quot;p1&quot;&gt;&lt;span style=&quot;text-align: center; text-indent: 0px;&quot;&gt;&lt;font style=&quot;font-size: 14px;&quot; face=&quot;Times New Roman&quot;&gt;Объект даных внешних сервисов&lt;/font&gt;&lt;/span&gt;&lt;br&gt;&lt;/p&gt;" style="rounded=1;whiteSpace=wrap;html=1;fillColor=#B8B8B8;strokeColor=#FFD966;" parent="1" vertex="1">
          <mxGeometry x="1524" y="3274" width="204" height="21" as="geometry" />
        </mxCell>
        <mxCell id="5yhpN9zNZQplvpEK3OU1-86" value="" style="endArrow=classic;html=1;rounded=1;curved=0;strokeWidth=2;" parent="1" edge="1">
          <mxGeometry width="50" height="50" relative="1" as="geometry">
            <mxPoint x="1815" y="3186" as="sourcePoint" />
            <mxPoint x="2025" y="3186" as="targetPoint" />
            <Array as="points">
              <mxPoint x="1815" y="3186" />
            </Array>
          </mxGeometry>
        </mxCell>
        <mxCell id="5yhpN9zNZQplvpEK3OU1-87" value="&lt;font style=&quot;font-size: 12px;&quot;&gt;Подтверждение отмены&amp;nbsp;&lt;/font&gt;&lt;div&gt;&lt;font style=&quot;font-size: 12px;&quot;&gt;платежа&lt;/font&gt;&lt;/div&gt;" style="edgeLabel;html=1;align=center;verticalAlign=middle;resizable=0;points=[];rounded=1;" parent="5yhpN9zNZQplvpEK3OU1-86" vertex="1" connectable="0">
          <mxGeometry x="0.1936" y="1" relative="1" as="geometry">
            <mxPoint x="-24" y="-39" as="offset" />
          </mxGeometry>
        </mxCell>
        <mxCell id="5yhpN9zNZQplvpEK3OU1-88" value="&lt;font style=&quot;font-size: 12px;&quot;&gt;[Транзакция.Статус]&lt;/font&gt;" style="text;html=1;align=center;verticalAlign=middle;whiteSpace=wrap;rounded=1;fontSize=13;labelBackgroundColor=none;fontColor=#B8B8B8;" parent="1" vertex="1">
          <mxGeometry x="1830" y="3156" width="160" height="30" as="geometry" />
        </mxCell>
        <mxCell id="5yhpN9zNZQplvpEK3OU1-89" value="" style="endArrow=classic;html=1;rounded=1;dashed=1;strokeWidth=2;" parent="1" edge="1">
          <mxGeometry width="50" height="50" relative="1" as="geometry">
            <mxPoint x="1814" y="3236" as="sourcePoint" />
            <mxPoint x="2029" y="3236" as="targetPoint" />
            <Array as="points" />
          </mxGeometry>
        </mxCell>
        <mxCell id="5yhpN9zNZQplvpEK3OU1-91" value="Клиент" style="shape=umlActor;verticalLabelPosition=bottom;verticalAlign=top;html=1;outlineConnect=0;rounded=1;" parent="1" vertex="1">
          <mxGeometry x="1953" y="-467" width="65" height="141" as="geometry" />
        </mxCell>
        <mxCell id="5yhpN9zNZQplvpEK3OU1-92" value="" style="endArrow=classic;html=1;rounded=1;dashed=1;entryX=0.727;entryY=0.031;entryDx=0;entryDy=0;entryPerimeter=0;fontSize=12;" parent="1" source="5yhpN9zNZQplvpEK3OU1-91" edge="1">
          <mxGeometry width="50" height="50" relative="1" as="geometry">
            <mxPoint x="1985" y="-420" as="sourcePoint" />
            <mxPoint x="1986.2600000000002" y="-156.48099999999977" as="targetPoint" />
            <Array as="points" />
          </mxGeometry>
        </mxCell>
        <mxCell id="5yhpN9zNZQplvpEK3OU1-93" value="1" style="ellipse;whiteSpace=wrap;html=1;aspect=fixed;rounded=1;fillColor=#FF77BF;" parent="1" vertex="1">
          <mxGeometry x="1823" y="3290" width="23" height="23" as="geometry" />
        </mxCell>
        <mxCell id="5yhpN9zNZQplvpEK3OU1-94" value="&lt;span style=&quot;font-size: 18px;&quot;&gt;&lt;i&gt;Номер потока&lt;/i&gt;&lt;/span&gt;" style="text;html=1;align=center;verticalAlign=middle;whiteSpace=wrap;rounded=1;shadow=0;fontSize=23;fontStyle=0" parent="1" vertex="1">
          <mxGeometry x="1834" y="3277" width="161" height="49" as="geometry" />
        </mxCell>
        <mxCell id="5yhpN9zNZQplvpEK3OU1-95" value="&lt;h1 style=&quot;margin-top: 0px; font-size: 15px;&quot;&gt;&lt;p class=&quot;p1&quot; style=&quot;margin: 0px 0px 0px 21px; text-indent: -21px; font-variant-numeric: normal; font-variant-east-asian: normal; font-variant-alternates: normal; font-kerning: auto; font-optical-sizing: auto; font-feature-settings: normal; font-variation-settings: normal; font-variant-position: normal; font-stretch: normal; font-size: 15px; line-height: normal; color: rgb(14, 14, 14);&quot;&gt;&lt;span class=&quot;s1&quot; style=&quot;font-weight: 400; font-variant-numeric: normal; font-variant-east-asian: normal; font-variant-alternates: normal; font-kerning: auto; font-optical-sizing: auto; font-feature-settings: normal; font-variation-settings: normal; font-variant-position: normal; font-stretch: normal; line-height: normal; font-family: &amp;quot;Times New Roman&amp;quot;; font-size: 15px;&quot;&gt;1.&amp;nbsp;&lt;/span&gt;&lt;b style=&quot;font-size: 15px;&quot;&gt;Инициировать платёж&lt;/b&gt;&lt;b style=&quot;font-weight: 400; font-size: 15px;&quot;&gt;&amp;nbsp;&lt;/b&gt;&lt;span style=&quot;background-color: initial; color: rgb(51, 51, 51); font-family: &amp;quot;YS Text&amp;quot;, -apple-system, BlinkMacSystemFont, Arial, Helvetica, sans-serif; font-size: 16px; font-weight: 400;&quot;&gt;—&lt;/span&gt;&lt;span style=&quot;background-color: initial; color: rgb(0, 0, 0); font-weight: normal;&quot;&gt;&amp;nbsp;т&lt;/span&gt;&lt;span style=&quot;background-color: initial; font-weight: 400;&quot;&gt;орговая площадка инициирует платёж, отправив необходимые данные (ID пользователя, ID заказа, сумма заказа) в платёжный сервис.&lt;/span&gt;&lt;/p&gt;&lt;p class=&quot;p1&quot; style=&quot;margin: 0px 0px 0px 21px; text-indent: -21px; font-variant-numeric: normal; font-variant-east-asian: normal; font-variant-alternates: normal; font-kerning: auto; font-optical-sizing: auto; font-feature-settings: normal; font-variation-settings: normal; font-variant-position: normal; font-weight: 400; font-stretch: normal; font-size: 15px; line-height: normal; color: rgb(14, 14, 14);&quot;&gt;&lt;span class=&quot;s1&quot; style=&quot;font-variant-numeric: normal; font-variant-east-asian: normal; font-variant-alternates: normal; font-kerning: auto; font-optical-sizing: auto; font-feature-settings: normal; font-variation-settings: normal; font-variant-position: normal; font-stretch: normal; line-height: normal; font-family: &amp;quot;Times New Roman&amp;quot;; font-size: 15px;&quot;&gt;2.&amp;nbsp;&lt;/span&gt;&lt;b style=&quot;font-size: 15px;&quot;&gt;Предоставить статус платежа&amp;nbsp;&lt;/b&gt;&lt;span style=&quot;background-color: initial; color: rgb(51, 51, 51); font-family: &amp;quot;YS Text&amp;quot;, -apple-system, BlinkMacSystemFont, Arial, Helvetica, sans-serif; font-size: 16px;&quot;&gt;— п&lt;/span&gt;&lt;span style=&quot;background-color: initial; color: rgb(0, 0, 0);&quot;&gt;латё&lt;/span&gt;&lt;span style=&quot;background-color: initial; color: rgb(0, 0, 0);&quot;&gt;жный сервис принял запрос на проведение оплаты,&lt;/span&gt;&lt;span style=&quot;background-color: initial;&quot; class=&quot;Apple-converted-space&quot;&gt;&amp;nbsp;&lt;/span&gt;&lt;span style=&quot;background-color: initial;&quot;&gt;подтвердил возможность проведения платежа со счёта клиента, назначил идентификатор для этой транзакции и установил статус.&lt;/span&gt;&lt;/p&gt;&lt;p class=&quot;p1&quot; style=&quot;margin: 0px 0px 0px 21px; text-indent: -21px; font-variant-numeric: normal; font-variant-east-asian: normal; font-variant-alternates: normal; font-kerning: auto; font-optical-sizing: auto; font-feature-settings: normal; font-variation-settings: normal; font-variant-position: normal; font-weight: 400; font-stretch: normal; font-size: 15px; line-height: normal; color: rgb(14, 14, 14);&quot;&gt;&lt;span class=&quot;s1&quot; style=&quot;font-variant-numeric: normal; font-variant-east-asian: normal; font-variant-alternates: normal; font-kerning: auto; font-optical-sizing: auto; font-feature-settings: normal; font-variation-settings: normal; font-variant-position: normal; font-stretch: normal; line-height: normal; font-family: &amp;quot;Times New Roman&amp;quot;; font-size: 15px;&quot;&gt;3.&amp;nbsp;&lt;/span&gt;&lt;b style=&quot;font-size: 15px;&quot;&gt;Подтверждение платежа&amp;nbsp;&lt;/b&gt;&lt;span style=&quot;background-color: initial; color: rgb(51, 51, 51); font-family: &amp;quot;YS Text&amp;quot;, -apple-system, BlinkMacSystemFont, Arial, Helvetica, sans-serif; font-size: 16px;&quot;&gt;— т&lt;/span&gt;&lt;span style=&quot;background-color: initial; color: rgb(0, 0, 0);&quot;&gt;орговая площадка уведомляет платёжный сервис о подтверждении операции, отправляя ID транзакции.&lt;/span&gt;&lt;/p&gt;&lt;p class=&quot;p1&quot; style=&quot;margin: 0px 0px 0px 21px; text-indent: -21px; font-variant-numeric: normal; font-variant-east-asian: normal; font-variant-alternates: normal; font-kerning: auto; font-optical-sizing: auto; font-feature-settings: normal; font-variation-settings: normal; font-variant-position: normal; font-weight: 400; font-stretch: normal; font-size: 15px; line-height: normal; color: rgb(14, 14, 14);&quot;&gt;&lt;span class=&quot;s1&quot; style=&quot;font-variant-numeric: normal; font-variant-east-asian: normal; font-variant-alternates: normal; font-kerning: auto; font-optical-sizing: auto; font-feature-settings: normal; font-variation-settings: normal; font-variant-position: normal; font-stretch: normal; line-height: normal; font-family: &amp;quot;Times New Roman&amp;quot;; font-size: 15px;&quot;&gt;4.&amp;nbsp;&lt;/span&gt;&lt;b style=&quot;font-size: 15px;&quot;&gt;Запросить статус платежа&lt;/b&gt;&amp;nbsp;&lt;span style=&quot;background-color: initial; color: rgb(51, 51, 51); font-family: &amp;quot;YS Text&amp;quot;, -apple-system, BlinkMacSystemFont, Arial, Helvetica, sans-serif; font-size: 16px;&quot;&gt;— т&lt;/span&gt;&lt;span style=&quot;background-color: initial; color: rgb(0, 0, 0);&quot;&gt;орговая площадка отправляет запрос в платёжный сервис для получения текущего статуса обработки транзакции по ID.&lt;/span&gt;&lt;/p&gt;&lt;p class=&quot;p1&quot; style=&quot;margin: 0px 0px 0px 21px; text-indent: -21px; font-variant-numeric: normal; font-variant-east-asian: normal; font-variant-alternates: normal; font-kerning: auto; font-optical-sizing: auto; font-feature-settings: normal; font-variation-settings: normal; font-variant-position: normal; font-weight: 400; font-stretch: normal; font-size: 15px; line-height: normal; color: rgb(14, 14, 14);&quot;&gt;&lt;span class=&quot;s1&quot; style=&quot;font-variant-numeric: normal; font-variant-east-asian: normal; font-variant-alternates: normal; font-kerning: auto; font-optical-sizing: auto; font-feature-settings: normal; font-variation-settings: normal; font-variant-position: normal; font-stretch: normal; line-height: normal; font-family: &amp;quot;Times New Roman&amp;quot;; font-size: 15px;&quot;&gt;5.&amp;nbsp;&lt;/span&gt;&lt;b style=&quot;font-size: 15px;&quot;&gt;Подтверждение отмены платежа (альтернативный сценарий)&amp;nbsp;&lt;/b&gt;&lt;span style=&quot;background-color: initial; color: rgb(51, 51, 51); font-family: &amp;quot;YS Text&amp;quot;, -apple-system, BlinkMacSystemFont, Arial, Helvetica, sans-serif; font-size: 16px;&quot;&gt;— п&lt;/span&gt;&lt;span style=&quot;background-color: initial; color: rgb(0, 0, 0);&quot;&gt;латёжный сервис уведомляет систему об успешной отмене платежа, предоставляя статус отменённой транзакции.&lt;/span&gt;&lt;/p&gt;&lt;/h1&gt;" style="text;html=1;whiteSpace=wrap;overflow=hidden;rounded=0;fontSize=15;" parent="1" vertex="1">
          <mxGeometry x="2245" y="3029" width="904" height="189" as="geometry" />
        </mxCell>
        <mxCell id="5yhpN9zNZQplvpEK3OU1-96" value="&lt;font style=&quot;font-size: 20px;&quot;&gt;Описание взаимодействий&lt;/font&gt;" style="text;html=1;align=center;verticalAlign=middle;whiteSpace=wrap;rounded=0;" parent="1" vertex="1">
          <mxGeometry x="2515" y="2990" width="310" height="30" as="geometry" />
        </mxCell>
        <mxCell id="5yhpN9zNZQplvpEK3OU1-102" value="" style="group" parent="1" vertex="1" connectable="0">
          <mxGeometry x="1680" y="-100" width="309" height="39" as="geometry" />
        </mxCell>
        <mxCell id="5yhpN9zNZQplvpEK3OU1-103" value="" style="group" parent="5yhpN9zNZQplvpEK3OU1-102" vertex="1" connectable="0">
          <mxGeometry width="309" height="39" as="geometry" />
        </mxCell>
        <mxCell id="5yhpN9zNZQplvpEK3OU1-104" value="" style="rounded=1;whiteSpace=wrap;html=1;fillColor=#1C57CD;strokeColor=none;" parent="5yhpN9zNZQplvpEK3OU1-103" vertex="1">
          <mxGeometry width="309" height="39" as="geometry" />
        </mxCell>
        <mxCell id="5yhpN9zNZQplvpEK3OU1-105" value="" style="sketch=0;outlineConnect=0;fontColor=#FFFFFF;gradientColor=none;fillColor=#FFFFFF;strokeColor=none;dashed=0;verticalLabelPosition=bottom;verticalAlign=top;align=center;html=1;fontSize=12;fontStyle=0;aspect=fixed;pointerEvents=1;shape=mxgraph.aws4.gear;rounded=1;" parent="5yhpN9zNZQplvpEK3OU1-103" vertex="1">
          <mxGeometry x="280" y="11" width="17" height="17" as="geometry" />
        </mxCell>
        <mxCell id="5yhpN9zNZQplvpEK3OU1-106" value="Зарегистрироваться на площадке" style="text;html=1;align=center;verticalAlign=middle;whiteSpace=wrap;rounded=1;fontSize=13;fontColor=#FFFFFF;" parent="5yhpN9zNZQplvpEK3OU1-103" vertex="1">
          <mxGeometry x="9" y="4.5" width="218" height="30" as="geometry" />
        </mxCell>
        <mxCell id="5yhpN9zNZQplvpEK3OU1-107" value="" style="group" parent="1" vertex="1" connectable="0">
          <mxGeometry x="1680" y="-50" width="309" height="39" as="geometry" />
        </mxCell>
        <mxCell id="5yhpN9zNZQplvpEK3OU1-108" value="" style="group" parent="5yhpN9zNZQplvpEK3OU1-107" vertex="1" connectable="0">
          <mxGeometry width="309" height="39" as="geometry" />
        </mxCell>
        <mxCell id="5yhpN9zNZQplvpEK3OU1-109" value="" style="rounded=1;whiteSpace=wrap;html=1;fillColor=#1C57CD;strokeColor=none;" parent="5yhpN9zNZQplvpEK3OU1-108" vertex="1">
          <mxGeometry width="309" height="39" as="geometry" />
        </mxCell>
        <mxCell id="5yhpN9zNZQplvpEK3OU1-110" value="" style="sketch=0;outlineConnect=0;fontColor=#FFFFFF;gradientColor=none;fillColor=#FFFFFF;strokeColor=none;dashed=0;verticalLabelPosition=bottom;verticalAlign=top;align=center;html=1;fontSize=12;fontStyle=0;aspect=fixed;pointerEvents=1;shape=mxgraph.aws4.gear;rounded=1;" parent="5yhpN9zNZQplvpEK3OU1-108" vertex="1">
          <mxGeometry x="280" y="11" width="17" height="17" as="geometry" />
        </mxCell>
        <mxCell id="5yhpN9zNZQplvpEK3OU1-111" value="Редактировать профиль" style="text;html=1;align=center;verticalAlign=middle;whiteSpace=wrap;rounded=1;fontSize=13;fontColor=#FFFFFF;" parent="5yhpN9zNZQplvpEK3OU1-108" vertex="1">
          <mxGeometry x="8" y="4.5" width="164" height="30" as="geometry" />
        </mxCell>
        <mxCell id="5yhpN9zNZQplvpEK3OU1-112" value="" style="group" parent="1" vertex="1" connectable="0">
          <mxGeometry x="1680" width="309" height="39" as="geometry" />
        </mxCell>
        <mxCell id="5yhpN9zNZQplvpEK3OU1-113" value="" style="group" parent="5yhpN9zNZQplvpEK3OU1-112" vertex="1" connectable="0">
          <mxGeometry width="309" height="39" as="geometry" />
        </mxCell>
        <mxCell id="5yhpN9zNZQplvpEK3OU1-114" value="" style="rounded=1;whiteSpace=wrap;html=1;fillColor=#1C57CD;strokeColor=none;" parent="5yhpN9zNZQplvpEK3OU1-113" vertex="1">
          <mxGeometry width="309" height="39" as="geometry" />
        </mxCell>
        <mxCell id="5yhpN9zNZQplvpEK3OU1-115" value="" style="sketch=0;outlineConnect=0;fontColor=#FFFFFF;gradientColor=none;fillColor=#FFFFFF;strokeColor=none;dashed=0;verticalLabelPosition=bottom;verticalAlign=top;align=center;html=1;fontSize=12;fontStyle=0;aspect=fixed;pointerEvents=1;shape=mxgraph.aws4.gear;rounded=1;" parent="5yhpN9zNZQplvpEK3OU1-113" vertex="1">
          <mxGeometry x="280" y="11" width="17" height="17" as="geometry" />
        </mxCell>
        <mxCell id="5yhpN9zNZQplvpEK3OU1-116" value="Разместить заказ" style="text;html=1;align=center;verticalAlign=middle;whiteSpace=wrap;rounded=1;fontSize=13;fontColor=#FFFFFF;" parent="5yhpN9zNZQplvpEK3OU1-113" vertex="1">
          <mxGeometry x="14" y="3" width="117" height="30" as="geometry" />
        </mxCell>
        <mxCell id="5yhpN9zNZQplvpEK3OU1-117" value="" style="group" parent="1" vertex="1" connectable="0">
          <mxGeometry x="2000" y="-100" width="309" height="39" as="geometry" />
        </mxCell>
        <mxCell id="5yhpN9zNZQplvpEK3OU1-118" value="" style="group" parent="5yhpN9zNZQplvpEK3OU1-117" vertex="1" connectable="0">
          <mxGeometry width="309" height="39" as="geometry" />
        </mxCell>
        <mxCell id="5yhpN9zNZQplvpEK3OU1-119" value="" style="rounded=1;whiteSpace=wrap;html=1;fillColor=#1C57CD;strokeColor=none;" parent="5yhpN9zNZQplvpEK3OU1-118" vertex="1">
          <mxGeometry width="309" height="39" as="geometry" />
        </mxCell>
        <mxCell id="5yhpN9zNZQplvpEK3OU1-120" value="" style="sketch=0;outlineConnect=0;fontColor=#FFFFFF;gradientColor=none;fillColor=#FFFFFF;strokeColor=none;dashed=0;verticalLabelPosition=bottom;verticalAlign=top;align=center;html=1;fontSize=12;fontStyle=0;aspect=fixed;pointerEvents=1;shape=mxgraph.aws4.gear;rounded=1;" parent="5yhpN9zNZQplvpEK3OU1-118" vertex="1">
          <mxGeometry x="280" y="11" width="17" height="17" as="geometry" />
        </mxCell>
        <mxCell id="5yhpN9zNZQplvpEK3OU1-121" value="Разместить услугу" style="text;html=1;align=center;verticalAlign=middle;whiteSpace=wrap;rounded=1;fontSize=13;fontColor=#FFFFFF;" parent="5yhpN9zNZQplvpEK3OU1-118" vertex="1">
          <mxGeometry x="6" y="4.5" width="132" height="30" as="geometry" />
        </mxCell>
        <mxCell id="5yhpN9zNZQplvpEK3OU1-122" value="" style="group" parent="1" vertex="1" connectable="0">
          <mxGeometry x="2000" y="-50" width="309" height="39" as="geometry" />
        </mxCell>
        <mxCell id="5yhpN9zNZQplvpEK3OU1-123" value="" style="group" parent="5yhpN9zNZQplvpEK3OU1-122" vertex="1" connectable="0">
          <mxGeometry width="309" height="39" as="geometry" />
        </mxCell>
        <mxCell id="5yhpN9zNZQplvpEK3OU1-124" value="" style="rounded=1;whiteSpace=wrap;html=1;fillColor=#1C57CD;strokeColor=none;" parent="5yhpN9zNZQplvpEK3OU1-123" vertex="1">
          <mxGeometry width="309" height="39" as="geometry" />
        </mxCell>
        <mxCell id="5yhpN9zNZQplvpEK3OU1-125" value="" style="sketch=0;outlineConnect=0;fontColor=#FFFFFF;gradientColor=none;fillColor=#FFFFFF;strokeColor=none;dashed=0;verticalLabelPosition=bottom;verticalAlign=top;align=center;html=1;fontSize=12;fontStyle=0;aspect=fixed;pointerEvents=1;shape=mxgraph.aws4.gear;rounded=1;" parent="5yhpN9zNZQplvpEK3OU1-123" vertex="1">
          <mxGeometry x="280" y="11" width="17" height="17" as="geometry" />
        </mxCell>
        <mxCell id="5yhpN9zNZQplvpEK3OU1-126" value="Создать аукцион" style="text;html=1;align=center;verticalAlign=middle;whiteSpace=wrap;rounded=1;fontSize=13;fontColor=#FFFFFF;" parent="5yhpN9zNZQplvpEK3OU1-123" vertex="1">
          <mxGeometry x="10" y="4.5" width="110" height="30" as="geometry" />
        </mxCell>
        <mxCell id="5yhpN9zNZQplvpEK3OU1-127" value="" style="group" parent="1" vertex="1" connectable="0">
          <mxGeometry x="2000" width="309" height="39" as="geometry" />
        </mxCell>
        <mxCell id="5yhpN9zNZQplvpEK3OU1-128" value="" style="group" parent="5yhpN9zNZQplvpEK3OU1-127" vertex="1" connectable="0">
          <mxGeometry width="309" height="39" as="geometry" />
        </mxCell>
        <mxCell id="5yhpN9zNZQplvpEK3OU1-129" value="" style="rounded=1;whiteSpace=wrap;html=1;fillColor=#1C57CD;strokeColor=none;" parent="5yhpN9zNZQplvpEK3OU1-128" vertex="1">
          <mxGeometry width="309" height="39" as="geometry" />
        </mxCell>
        <mxCell id="5yhpN9zNZQplvpEK3OU1-130" value="" style="sketch=0;outlineConnect=0;fontColor=#FFFFFF;gradientColor=none;fillColor=#FFFFFF;strokeColor=none;dashed=0;verticalLabelPosition=bottom;verticalAlign=top;align=center;html=1;fontSize=12;fontStyle=0;aspect=fixed;pointerEvents=1;shape=mxgraph.aws4.gear;rounded=1;" parent="5yhpN9zNZQplvpEK3OU1-128" vertex="1">
          <mxGeometry x="280" y="11" width="17" height="17" as="geometry" />
        </mxCell>
        <mxCell id="5yhpN9zNZQplvpEK3OU1-131" value="Подать заявку на аукцион" style="text;html=1;align=center;verticalAlign=middle;whiteSpace=wrap;rounded=1;fontSize=13;fontColor=#FFFFFF;" parent="5yhpN9zNZQplvpEK3OU1-128" vertex="1">
          <mxGeometry x="10" y="4.5" width="167" height="30" as="geometry" />
        </mxCell>
        <mxCell id="5yhpN9zNZQplvpEK3OU1-148" value="" style="group" parent="1" vertex="1" connectable="0">
          <mxGeometry x="2725" y="1577.5" width="309" height="39" as="geometry" />
        </mxCell>
        <mxCell id="5yhpN9zNZQplvpEK3OU1-149" value="" style="rounded=1;whiteSpace=wrap;html=1;fillColor=#1C57CD;strokeColor=none;" parent="5yhpN9zNZQplvpEK3OU1-148" vertex="1">
          <mxGeometry width="309" height="39" as="geometry" />
        </mxCell>
        <mxCell id="5yhpN9zNZQplvpEK3OU1-150" value="" style="sketch=0;outlineConnect=0;fontColor=#232F3E;gradientColor=none;fillColor=default;strokeColor=none;dashed=0;verticalLabelPosition=bottom;verticalAlign=top;align=center;html=1;fontSize=12;fontStyle=0;aspect=fixed;pointerEvents=1;shape=mxgraph.aws4.gear;rounded=1;" parent="5yhpN9zNZQplvpEK3OU1-148" vertex="1">
          <mxGeometry x="282" y="11" width="17" height="17" as="geometry" />
        </mxCell>
        <mxCell id="5yhpN9zNZQplvpEK3OU1-151" value="Удалить услугу пользователя" style="text;html=1;align=center;verticalAlign=middle;whiteSpace=wrap;rounded=1;fontSize=13;fontColor=#FFFFFF;strokeColor=none;" parent="5yhpN9zNZQplvpEK3OU1-148" vertex="1">
          <mxGeometry x="3" y="4.5" width="189" height="30" as="geometry" />
        </mxCell>
        <mxCell id="5yhpN9zNZQplvpEK3OU1-152" value="" style="group" parent="1" vertex="1" connectable="0">
          <mxGeometry x="2725" y="1625" width="309" height="39" as="geometry" />
        </mxCell>
        <mxCell id="5yhpN9zNZQplvpEK3OU1-153" value="" style="rounded=1;whiteSpace=wrap;html=1;fillColor=#1C57CD;strokeColor=none;" parent="5yhpN9zNZQplvpEK3OU1-152" vertex="1">
          <mxGeometry width="309" height="39" as="geometry" />
        </mxCell>
        <mxCell id="5yhpN9zNZQplvpEK3OU1-154" value="" style="sketch=0;outlineConnect=0;fontColor=#232F3E;gradientColor=none;fillColor=default;strokeColor=none;dashed=0;verticalLabelPosition=bottom;verticalAlign=top;align=center;html=1;fontSize=12;fontStyle=0;aspect=fixed;pointerEvents=1;shape=mxgraph.aws4.gear;rounded=1;" parent="5yhpN9zNZQplvpEK3OU1-152" vertex="1">
          <mxGeometry x="282" y="11" width="17" height="17" as="geometry" />
        </mxCell>
        <mxCell id="5yhpN9zNZQplvpEK3OU1-155" value="Удалить товар пользователя" style="text;html=1;align=center;verticalAlign=middle;whiteSpace=wrap;rounded=1;fontSize=13;fontColor=#FFFFFF;strokeColor=none;" parent="5yhpN9zNZQplvpEK3OU1-152" vertex="1">
          <mxGeometry x="2" y="4.5" width="188" height="30" as="geometry" />
        </mxCell>
        <mxCell id="5yhpN9zNZQplvpEK3OU1-156" value="" style="group" parent="1" vertex="1" connectable="0">
          <mxGeometry x="1664.5" y="1712.5" width="309" height="39" as="geometry" />
        </mxCell>
        <mxCell id="5yhpN9zNZQplvpEK3OU1-157" value="" style="rounded=1;whiteSpace=wrap;html=1;fillColor=#1C57CD;strokeColor=none;" parent="5yhpN9zNZQplvpEK3OU1-156" vertex="1">
          <mxGeometry width="309" height="39" as="geometry" />
        </mxCell>
        <mxCell id="5yhpN9zNZQplvpEK3OU1-158" value="" style="sketch=0;outlineConnect=0;fontColor=#232F3E;gradientColor=none;fillColor=default;strokeColor=none;dashed=0;verticalLabelPosition=bottom;verticalAlign=top;align=center;html=1;fontSize=12;fontStyle=0;aspect=fixed;pointerEvents=1;shape=mxgraph.aws4.gear;rounded=1;" parent="5yhpN9zNZQplvpEK3OU1-156" vertex="1">
          <mxGeometry x="282" y="11" width="17" height="17" as="geometry" />
        </mxCell>
        <mxCell id="5yhpN9zNZQplvpEK3OU1-159" value="Создание заказа" style="text;html=1;align=center;verticalAlign=middle;whiteSpace=wrap;rounded=1;fontSize=13;fontColor=#FFFFFF;strokeColor=none;" parent="5yhpN9zNZQplvpEK3OU1-156" vertex="1">
          <mxGeometry x="5" y="4.5" width="110" height="30" as="geometry" />
        </mxCell>
        <mxCell id="5yhpN9zNZQplvpEK3OU1-160" value="" style="group" parent="1" vertex="1" connectable="0">
          <mxGeometry x="1664.5" y="1753.5" width="309" height="39" as="geometry" />
        </mxCell>
        <mxCell id="5yhpN9zNZQplvpEK3OU1-161" value="" style="rounded=1;whiteSpace=wrap;html=1;fillColor=#1C57CD;strokeColor=none;" parent="5yhpN9zNZQplvpEK3OU1-160" vertex="1">
          <mxGeometry width="309" height="39" as="geometry" />
        </mxCell>
        <mxCell id="5yhpN9zNZQplvpEK3OU1-162" value="" style="sketch=0;outlineConnect=0;fontColor=#232F3E;gradientColor=none;fillColor=default;strokeColor=none;dashed=0;verticalLabelPosition=bottom;verticalAlign=top;align=center;html=1;fontSize=12;fontStyle=0;aspect=fixed;pointerEvents=1;shape=mxgraph.aws4.gear;rounded=1;" parent="5yhpN9zNZQplvpEK3OU1-160" vertex="1">
          <mxGeometry x="282" y="11" width="17" height="17" as="geometry" />
        </mxCell>
        <mxCell id="5yhpN9zNZQplvpEK3OU1-163" value="Редактирование заказа" style="text;html=1;align=center;verticalAlign=middle;whiteSpace=wrap;rounded=1;fontSize=13;fontColor=#FFFFFF;strokeColor=none;" parent="5yhpN9zNZQplvpEK3OU1-160" vertex="1">
          <mxGeometry x="3" y="4.5" width="154" height="30" as="geometry" />
        </mxCell>
        <mxCell id="5yhpN9zNZQplvpEK3OU1-164" value="" style="group" parent="1" vertex="1" connectable="0">
          <mxGeometry x="1664.5" y="1800.5" width="309" height="39" as="geometry" />
        </mxCell>
        <mxCell id="5yhpN9zNZQplvpEK3OU1-165" value="" style="rounded=1;whiteSpace=wrap;html=1;fillColor=#1C57CD;strokeColor=none;" parent="5yhpN9zNZQplvpEK3OU1-164" vertex="1">
          <mxGeometry width="309" height="39" as="geometry" />
        </mxCell>
        <mxCell id="5yhpN9zNZQplvpEK3OU1-166" value="" style="sketch=0;outlineConnect=0;fontColor=#232F3E;gradientColor=none;fillColor=default;strokeColor=none;dashed=0;verticalLabelPosition=bottom;verticalAlign=top;align=center;html=1;fontSize=12;fontStyle=0;aspect=fixed;pointerEvents=1;shape=mxgraph.aws4.gear;rounded=1;" parent="5yhpN9zNZQplvpEK3OU1-164" vertex="1">
          <mxGeometry x="282" y="11" width="17" height="17" as="geometry" />
        </mxCell>
        <mxCell id="5yhpN9zNZQplvpEK3OU1-167" value="Сохранение заказа" style="text;html=1;align=center;verticalAlign=middle;whiteSpace=wrap;rounded=1;fontSize=13;fontColor=#FFFFFF;strokeColor=none;" parent="5yhpN9zNZQplvpEK3OU1-164" vertex="1">
          <mxGeometry x="4" y="4" width="126" height="30" as="geometry" />
        </mxCell>
        <mxCell id="5yhpN9zNZQplvpEK3OU1-168" value="" style="group" parent="1" vertex="1" connectable="0">
          <mxGeometry x="1724" y="1849.5" width="309" height="39" as="geometry" />
        </mxCell>
        <mxCell id="5yhpN9zNZQplvpEK3OU1-169" value="" style="rounded=1;whiteSpace=wrap;html=1;fillColor=#1C57CD;strokeColor=none;" parent="5yhpN9zNZQplvpEK3OU1-168" vertex="1">
          <mxGeometry x="-59.5" width="309" height="39" as="geometry" />
        </mxCell>
        <mxCell id="5yhpN9zNZQplvpEK3OU1-170" value="" style="sketch=0;outlineConnect=0;fontColor=#232F3E;gradientColor=none;fillColor=default;strokeColor=none;dashed=0;verticalLabelPosition=bottom;verticalAlign=top;align=center;html=1;fontSize=12;fontStyle=0;aspect=fixed;pointerEvents=1;shape=mxgraph.aws4.gear;rounded=1;" parent="5yhpN9zNZQplvpEK3OU1-168" vertex="1">
          <mxGeometry x="281.5" y="11" width="17" height="17" as="geometry" />
        </mxCell>
        <mxCell id="5yhpN9zNZQplvpEK3OU1-171" value="Подтверждение заказа" style="text;html=1;align=center;verticalAlign=middle;whiteSpace=wrap;rounded=1;fontSize=13;fontColor=#FFFFFF;strokeColor=none;" parent="5yhpN9zNZQplvpEK3OU1-168" vertex="1">
          <mxGeometry x="-50" y="4.5" width="152" height="30" as="geometry" />
        </mxCell>
        <mxCell id="5yhpN9zNZQplvpEK3OU1-392" value="" style="sketch=0;outlineConnect=0;fontColor=#232F3E;gradientColor=none;fillColor=default;strokeColor=none;dashed=0;verticalLabelPosition=bottom;verticalAlign=top;align=center;html=1;fontSize=12;fontStyle=0;aspect=fixed;pointerEvents=1;shape=mxgraph.aws4.gear;rounded=1;" parent="5yhpN9zNZQplvpEK3OU1-168" vertex="1">
          <mxGeometry x="220" y="11" width="17" height="17" as="geometry" />
        </mxCell>
        <mxCell id="5yhpN9zNZQplvpEK3OU1-172" value="" style="group" parent="1" vertex="1" connectable="0">
          <mxGeometry x="1664.5" y="1902.5" width="309" height="39" as="geometry" />
        </mxCell>
        <mxCell id="5yhpN9zNZQplvpEK3OU1-173" value="" style="rounded=1;whiteSpace=wrap;html=1;fillColor=#1C57CD;strokeColor=none;" parent="5yhpN9zNZQplvpEK3OU1-172" vertex="1">
          <mxGeometry width="309" height="39" as="geometry" />
        </mxCell>
        <mxCell id="5yhpN9zNZQplvpEK3OU1-174" value="" style="sketch=0;outlineConnect=0;fontColor=#232F3E;gradientColor=none;fillColor=default;strokeColor=none;dashed=0;verticalLabelPosition=bottom;verticalAlign=top;align=center;html=1;fontSize=12;fontStyle=0;aspect=fixed;pointerEvents=1;shape=mxgraph.aws4.gear;rounded=1;" parent="5yhpN9zNZQplvpEK3OU1-172" vertex="1">
          <mxGeometry x="281.5" y="11" width="17" height="17" as="geometry" />
        </mxCell>
        <mxCell id="5yhpN9zNZQplvpEK3OU1-175" value="Размещение заказа" style="text;html=1;align=center;verticalAlign=middle;whiteSpace=wrap;rounded=1;fontSize=13;fontColor=#FFFFFF;strokeColor=none;" parent="5yhpN9zNZQplvpEK3OU1-172" vertex="1">
          <mxGeometry x="3" y="4.5" width="130.5" height="30" as="geometry" />
        </mxCell>
        <mxCell id="5yhpN9zNZQplvpEK3OU1-176" value="" style="group" parent="1" vertex="1" connectable="0">
          <mxGeometry x="1664.5" y="1954.5" width="309" height="39" as="geometry" />
        </mxCell>
        <mxCell id="5yhpN9zNZQplvpEK3OU1-177" value="" style="rounded=1;whiteSpace=wrap;html=1;fillColor=#1C57CD;strokeColor=none;" parent="5yhpN9zNZQplvpEK3OU1-176" vertex="1">
          <mxGeometry width="309" height="39" as="geometry" />
        </mxCell>
        <mxCell id="5yhpN9zNZQplvpEK3OU1-178" value="" style="sketch=0;outlineConnect=0;fontColor=#232F3E;gradientColor=none;fillColor=default;strokeColor=none;dashed=0;verticalLabelPosition=bottom;verticalAlign=top;align=center;html=1;fontSize=12;fontStyle=0;aspect=fixed;pointerEvents=1;shape=mxgraph.aws4.gear;rounded=1;" parent="5yhpN9zNZQplvpEK3OU1-176" vertex="1">
          <mxGeometry x="281.5" y="11" width="17" height="17" as="geometry" />
        </mxCell>
        <mxCell id="5yhpN9zNZQplvpEK3OU1-179" value="Отобразить все заказы" style="text;html=1;align=center;verticalAlign=middle;whiteSpace=wrap;rounded=1;fontSize=13;fontColor=#FFFFFF;strokeColor=none;" parent="5yhpN9zNZQplvpEK3OU1-176" vertex="1">
          <mxGeometry x="3" y="4.5" width="152" height="30" as="geometry" />
        </mxCell>
        <mxCell id="5yhpN9zNZQplvpEK3OU1-180" value="" style="group" parent="1" vertex="1" connectable="0">
          <mxGeometry x="1664" y="2002.5" width="309" height="39" as="geometry" />
        </mxCell>
        <mxCell id="5yhpN9zNZQplvpEK3OU1-181" value="" style="rounded=1;whiteSpace=wrap;html=1;fillColor=#1C57CD;strokeColor=none;" parent="5yhpN9zNZQplvpEK3OU1-180" vertex="1">
          <mxGeometry width="309" height="39" as="geometry" />
        </mxCell>
        <mxCell id="5yhpN9zNZQplvpEK3OU1-182" value="" style="sketch=0;outlineConnect=0;fontColor=#232F3E;gradientColor=none;fillColor=default;strokeColor=none;dashed=0;verticalLabelPosition=bottom;verticalAlign=top;align=center;html=1;fontSize=12;fontStyle=0;aspect=fixed;pointerEvents=1;shape=mxgraph.aws4.gear;rounded=1;" parent="5yhpN9zNZQplvpEK3OU1-180" vertex="1">
          <mxGeometry x="282" y="11" width="17" height="17" as="geometry" />
        </mxCell>
        <mxCell id="5yhpN9zNZQplvpEK3OU1-183" value="Отобразить детали заказа" style="text;html=1;align=center;verticalAlign=middle;whiteSpace=wrap;rounded=1;fontSize=13;fontColor=#FFFFFF;strokeColor=none;" parent="5yhpN9zNZQplvpEK3OU1-180" vertex="1">
          <mxGeometry x="5" y="5" width="169" height="30" as="geometry" />
        </mxCell>
        <mxCell id="5yhpN9zNZQplvpEK3OU1-184" value="" style="group" parent="1" vertex="1" connectable="0">
          <mxGeometry x="2237" y="178.75" width="309" height="39" as="geometry" />
        </mxCell>
        <mxCell id="5yhpN9zNZQplvpEK3OU1-185" value="" style="rounded=1;whiteSpace=wrap;html=1;fillColor=#1C57CD;strokeColor=none;" parent="5yhpN9zNZQplvpEK3OU1-184" vertex="1">
          <mxGeometry width="309" height="39" as="geometry" />
        </mxCell>
        <mxCell id="5yhpN9zNZQplvpEK3OU1-186" value="" style="sketch=0;outlineConnect=0;fontColor=#232F3E;gradientColor=none;fillColor=default;strokeColor=none;dashed=0;verticalLabelPosition=bottom;verticalAlign=top;align=center;html=1;fontSize=12;fontStyle=0;aspect=fixed;pointerEvents=1;shape=mxgraph.aws4.gear;rounded=1;" parent="5yhpN9zNZQplvpEK3OU1-184" vertex="1">
          <mxGeometry x="282" y="11" width="17" height="17" as="geometry" />
        </mxCell>
        <mxCell id="5yhpN9zNZQplvpEK3OU1-187" value="Нотификация об изменении состояния заказа" style="text;html=1;align=center;verticalAlign=middle;whiteSpace=wrap;rounded=1;fontSize=13;fontColor=#FFFFFF;strokeColor=none;" parent="5yhpN9zNZQplvpEK3OU1-184" vertex="1">
          <mxGeometry x="6" y="4.5" width="247" height="30" as="geometry" />
        </mxCell>
        <mxCell id="5yhpN9zNZQplvpEK3OU1-188" value="" style="group" parent="1" vertex="1" connectable="0">
          <mxGeometry x="2998.5" y="1022.63" width="309" height="39" as="geometry" />
        </mxCell>
        <mxCell id="5yhpN9zNZQplvpEK3OU1-189" value="" style="rounded=1;whiteSpace=wrap;html=1;fillColor=#1C57CD;strokeColor=none;" parent="5yhpN9zNZQplvpEK3OU1-188" vertex="1">
          <mxGeometry width="309" height="39" as="geometry" />
        </mxCell>
        <mxCell id="5yhpN9zNZQplvpEK3OU1-190" value="" style="sketch=0;outlineConnect=0;fontColor=#232F3E;gradientColor=none;fillColor=#FFFFFF;strokeColor=none;dashed=0;verticalLabelPosition=bottom;verticalAlign=top;align=center;html=1;fontSize=12;fontStyle=0;aspect=fixed;pointerEvents=1;shape=mxgraph.aws4.gear;rounded=1;" parent="5yhpN9zNZQplvpEK3OU1-188" vertex="1">
          <mxGeometry x="286" y="11" width="17" height="17" as="geometry" />
        </mxCell>
        <mxCell id="5yhpN9zNZQplvpEK3OU1-191" value="Определить способ оплаты" style="text;html=1;align=center;verticalAlign=middle;whiteSpace=wrap;rounded=1;fontSize=13;fontColor=#FFFFFF;strokeColor=none;" parent="5yhpN9zNZQplvpEK3OU1-188" vertex="1">
          <mxGeometry x="7" y="4.5" width="173" height="30" as="geometry" />
        </mxCell>
        <mxCell id="5yhpN9zNZQplvpEK3OU1-192" value="" style="group" parent="1" vertex="1" connectable="0">
          <mxGeometry x="2725" y="1667.5" width="309" height="39" as="geometry" />
        </mxCell>
        <mxCell id="5yhpN9zNZQplvpEK3OU1-193" value="" style="rounded=1;whiteSpace=wrap;html=1;fillColor=#1C57CD;strokeColor=none;" parent="5yhpN9zNZQplvpEK3OU1-192" vertex="1">
          <mxGeometry width="309" height="39" as="geometry" />
        </mxCell>
        <mxCell id="5yhpN9zNZQplvpEK3OU1-194" value="" style="sketch=0;outlineConnect=0;fontColor=#232F3E;gradientColor=none;fillColor=#FFFFFF;strokeColor=none;dashed=0;verticalLabelPosition=bottom;verticalAlign=top;align=center;html=1;fontSize=12;fontStyle=0;aspect=fixed;pointerEvents=1;shape=mxgraph.aws4.gear;rounded=1;" parent="5yhpN9zNZQplvpEK3OU1-192" vertex="1">
          <mxGeometry x="286" y="11" width="17" height="17" as="geometry" />
        </mxCell>
        <mxCell id="5yhpN9zNZQplvpEK3OU1-195" value="Добавить товар в профиль пользователя" style="text;html=1;align=center;verticalAlign=middle;whiteSpace=wrap;rounded=1;fontSize=13;fontColor=#FFFFFF;strokeColor=none;" parent="5yhpN9zNZQplvpEK3OU1-192" vertex="1">
          <mxGeometry x="8" y="4" width="262" height="30" as="geometry" />
        </mxCell>
        <mxCell id="5yhpN9zNZQplvpEK3OU1-196" value="" style="group" parent="1" vertex="1" connectable="0">
          <mxGeometry x="2725" y="1714.5" width="309" height="39" as="geometry" />
        </mxCell>
        <mxCell id="5yhpN9zNZQplvpEK3OU1-197" value="" style="rounded=1;whiteSpace=wrap;html=1;fillColor=#1C57CD;strokeColor=none;" parent="5yhpN9zNZQplvpEK3OU1-196" vertex="1">
          <mxGeometry width="309" height="39" as="geometry" />
        </mxCell>
        <mxCell id="5yhpN9zNZQplvpEK3OU1-198" value="" style="sketch=0;outlineConnect=0;fontColor=#232F3E;gradientColor=none;fillColor=#FFFFFF;strokeColor=none;dashed=0;verticalLabelPosition=bottom;verticalAlign=top;align=center;html=1;fontSize=12;fontStyle=0;aspect=fixed;pointerEvents=1;shape=mxgraph.aws4.gear;rounded=1;" parent="5yhpN9zNZQplvpEK3OU1-196" vertex="1">
          <mxGeometry x="286" y="10" width="17" height="17" as="geometry" />
        </mxCell>
        <mxCell id="5yhpN9zNZQplvpEK3OU1-199" value="Добавить услугу в профиль пользователя" style="text;html=1;align=center;verticalAlign=middle;whiteSpace=wrap;rounded=1;fontSize=13;fontColor=#FFFFFF;strokeColor=none;" parent="5yhpN9zNZQplvpEK3OU1-196" vertex="1">
          <mxGeometry x="2" y="5" width="273" height="30" as="geometry" />
        </mxCell>
        <mxCell id="5yhpN9zNZQplvpEK3OU1-200" value="" style="group" parent="1" vertex="1" connectable="0">
          <mxGeometry x="2725" y="1763.5" width="309" height="39" as="geometry" />
        </mxCell>
        <mxCell id="5yhpN9zNZQplvpEK3OU1-201" value="" style="rounded=1;whiteSpace=wrap;html=1;fillColor=#1C57CD;strokeColor=none;" parent="5yhpN9zNZQplvpEK3OU1-200" vertex="1">
          <mxGeometry width="309" height="39" as="geometry" />
        </mxCell>
        <mxCell id="5yhpN9zNZQplvpEK3OU1-202" value="" style="sketch=0;outlineConnect=0;fontColor=#232F3E;gradientColor=none;fillColor=#FFFFFF;strokeColor=none;dashed=0;verticalLabelPosition=bottom;verticalAlign=top;align=center;html=1;fontSize=12;fontStyle=0;aspect=fixed;pointerEvents=1;shape=mxgraph.aws4.gear;rounded=1;" parent="5yhpN9zNZQplvpEK3OU1-200" vertex="1">
          <mxGeometry x="286" y="11" width="17" height="17" as="geometry" />
        </mxCell>
        <mxCell id="5yhpN9zNZQplvpEK3OU1-203" value="Изменить товар пользователя" style="text;html=1;align=center;verticalAlign=middle;whiteSpace=wrap;rounded=1;fontSize=13;fontColor=#FFFFFF;strokeColor=none;" parent="5yhpN9zNZQplvpEK3OU1-200" vertex="1">
          <mxGeometry x="7" y="3" width="195" height="30" as="geometry" />
        </mxCell>
        <mxCell id="5yhpN9zNZQplvpEK3OU1-204" value="" style="group" parent="1" vertex="1" connectable="0">
          <mxGeometry x="2725" y="1811.5" width="309" height="39" as="geometry" />
        </mxCell>
        <mxCell id="5yhpN9zNZQplvpEK3OU1-205" value="" style="rounded=1;whiteSpace=wrap;html=1;fillColor=#1C57CD;strokeColor=none;" parent="5yhpN9zNZQplvpEK3OU1-204" vertex="1">
          <mxGeometry width="309" height="39" as="geometry" />
        </mxCell>
        <mxCell id="5yhpN9zNZQplvpEK3OU1-206" value="" style="sketch=0;outlineConnect=0;fontColor=#232F3E;gradientColor=none;fillColor=#FFFFFF;strokeColor=none;dashed=0;verticalLabelPosition=bottom;verticalAlign=top;align=center;html=1;fontSize=12;fontStyle=0;aspect=fixed;pointerEvents=1;shape=mxgraph.aws4.gear;rounded=1;" parent="5yhpN9zNZQplvpEK3OU1-204" vertex="1">
          <mxGeometry x="286" y="11" width="17" height="17" as="geometry" />
        </mxCell>
        <mxCell id="5yhpN9zNZQplvpEK3OU1-207" value="Изменить услугу пользователя" style="text;html=1;align=center;verticalAlign=middle;whiteSpace=wrap;rounded=1;fontSize=13;fontColor=#FFFFFF;strokeColor=none;" parent="5yhpN9zNZQplvpEK3OU1-204" vertex="1">
          <mxGeometry x="4" y="4.5" width="195" height="30" as="geometry" />
        </mxCell>
        <mxCell id="5yhpN9zNZQplvpEK3OU1-208" value="" style="group" parent="1" vertex="1" connectable="0">
          <mxGeometry x="2210" y="1710.5" width="309" height="39" as="geometry" />
        </mxCell>
        <mxCell id="5yhpN9zNZQplvpEK3OU1-209" value="" style="rounded=1;whiteSpace=wrap;html=1;fillColor=#1C57CD;strokeColor=none;" parent="5yhpN9zNZQplvpEK3OU1-208" vertex="1">
          <mxGeometry width="309" height="39" as="geometry" />
        </mxCell>
        <mxCell id="5yhpN9zNZQplvpEK3OU1-210" value="" style="sketch=0;outlineConnect=0;fontColor=#232F3E;gradientColor=none;fillColor=#FFFFFF;strokeColor=none;dashed=0;verticalLabelPosition=bottom;verticalAlign=top;align=center;html=1;fontSize=12;fontStyle=0;aspect=fixed;pointerEvents=1;shape=mxgraph.aws4.gear;rounded=1;" parent="5yhpN9zNZQplvpEK3OU1-208" vertex="1">
          <mxGeometry x="286" y="11" width="17" height="17" as="geometry" />
        </mxCell>
        <mxCell id="5yhpN9zNZQplvpEK3OU1-211" value="Создать аукцион" style="text;html=1;align=center;verticalAlign=middle;whiteSpace=wrap;rounded=1;fontSize=13;fontColor=#FFFFFF;strokeColor=none;" parent="5yhpN9zNZQplvpEK3OU1-208" vertex="1">
          <mxGeometry x="3" y="4.5" width="113" height="30" as="geometry" />
        </mxCell>
        <mxCell id="5yhpN9zNZQplvpEK3OU1-212" value="" style="group" parent="1" vertex="1" connectable="0">
          <mxGeometry x="2210" y="1758" width="309" height="39" as="geometry" />
        </mxCell>
        <mxCell id="5yhpN9zNZQplvpEK3OU1-213" value="" style="rounded=1;whiteSpace=wrap;html=1;fillColor=#1C57CD;strokeColor=none;" parent="5yhpN9zNZQplvpEK3OU1-212" vertex="1">
          <mxGeometry width="309" height="39" as="geometry" />
        </mxCell>
        <mxCell id="5yhpN9zNZQplvpEK3OU1-214" value="" style="sketch=0;outlineConnect=0;fontColor=#232F3E;gradientColor=none;fillColor=#FFFFFF;strokeColor=none;dashed=0;verticalLabelPosition=bottom;verticalAlign=top;align=center;html=1;fontSize=12;fontStyle=0;aspect=fixed;pointerEvents=1;shape=mxgraph.aws4.gear;rounded=1;" parent="5yhpN9zNZQplvpEK3OU1-212" vertex="1">
          <mxGeometry x="286" y="11" width="17" height="17" as="geometry" />
        </mxCell>
        <mxCell id="5yhpN9zNZQplvpEK3OU1-215" value="Редактировать аукцион" style="text;html=1;align=center;verticalAlign=middle;whiteSpace=wrap;rounded=1;fontSize=13;fontColor=#FFFFFF;strokeColor=none;" parent="5yhpN9zNZQplvpEK3OU1-212" vertex="1">
          <mxGeometry x="3" y="4.5" width="160" height="30" as="geometry" />
        </mxCell>
        <mxCell id="5yhpN9zNZQplvpEK3OU1-216" value="" style="group" parent="1" vertex="1" connectable="0">
          <mxGeometry x="2210" y="1805.5" width="309" height="39" as="geometry" />
        </mxCell>
        <mxCell id="5yhpN9zNZQplvpEK3OU1-217" value="" style="rounded=1;whiteSpace=wrap;html=1;fillColor=#1C57CD;strokeColor=none;" parent="5yhpN9zNZQplvpEK3OU1-216" vertex="1">
          <mxGeometry width="309" height="39" as="geometry" />
        </mxCell>
        <mxCell id="5yhpN9zNZQplvpEK3OU1-218" value="" style="sketch=0;outlineConnect=0;fontColor=#232F3E;gradientColor=none;fillColor=#FFFFFF;strokeColor=none;dashed=0;verticalLabelPosition=bottom;verticalAlign=top;align=center;html=1;fontSize=12;fontStyle=0;aspect=fixed;pointerEvents=1;shape=mxgraph.aws4.gear;rounded=1;" parent="5yhpN9zNZQplvpEK3OU1-216" vertex="1">
          <mxGeometry x="286" y="11" width="17" height="17" as="geometry" />
        </mxCell>
        <mxCell id="5yhpN9zNZQplvpEK3OU1-219" value="Обработать новую заявку на аукцион" style="text;html=1;align=center;verticalAlign=middle;whiteSpace=wrap;rounded=1;fontSize=13;fontColor=#FFFFFF;strokeColor=none;" parent="5yhpN9zNZQplvpEK3OU1-216" vertex="1">
          <mxGeometry x="3" y="4.5" width="241" height="30" as="geometry" />
        </mxCell>
        <mxCell id="5yhpN9zNZQplvpEK3OU1-220" value="" style="group" parent="1" vertex="1" connectable="0">
          <mxGeometry x="2210" y="1853.5" width="309" height="39" as="geometry" />
        </mxCell>
        <mxCell id="5yhpN9zNZQplvpEK3OU1-221" value="" style="rounded=1;whiteSpace=wrap;html=1;fillColor=#1C57CD;strokeColor=none;" parent="5yhpN9zNZQplvpEK3OU1-220" vertex="1">
          <mxGeometry width="309" height="39" as="geometry" />
        </mxCell>
        <mxCell id="5yhpN9zNZQplvpEK3OU1-222" value="" style="sketch=0;outlineConnect=0;fontColor=#232F3E;gradientColor=none;fillColor=#FFFFFF;strokeColor=none;dashed=0;verticalLabelPosition=bottom;verticalAlign=top;align=center;html=1;fontSize=12;fontStyle=0;aspect=fixed;pointerEvents=1;shape=mxgraph.aws4.gear;rounded=1;" parent="5yhpN9zNZQplvpEK3OU1-220" vertex="1">
          <mxGeometry x="286" y="11" width="17" height="17" as="geometry" />
        </mxCell>
        <mxCell id="5yhpN9zNZQplvpEK3OU1-223" value="Обновление ставок аукциона" style="text;html=1;align=center;verticalAlign=middle;whiteSpace=wrap;rounded=1;fontSize=13;fontColor=#FFFFFF;strokeColor=none;" parent="5yhpN9zNZQplvpEK3OU1-220" vertex="1">
          <mxGeometry x="4" y="4.5" width="189" height="30" as="geometry" />
        </mxCell>
        <mxCell id="5yhpN9zNZQplvpEK3OU1-228" value="" style="group" parent="1" vertex="1" connectable="0">
          <mxGeometry x="2725" y="1857.5" width="309" height="39" as="geometry" />
        </mxCell>
        <mxCell id="5yhpN9zNZQplvpEK3OU1-229" value="" style="rounded=1;whiteSpace=wrap;html=1;fillColor=#1C57CD;strokeColor=none;" parent="5yhpN9zNZQplvpEK3OU1-228" vertex="1">
          <mxGeometry width="309" height="39" as="geometry" />
        </mxCell>
        <mxCell id="5yhpN9zNZQplvpEK3OU1-230" value="" style="sketch=0;outlineConnect=0;fontColor=#232F3E;gradientColor=none;fillColor=#FFFFFF;strokeColor=none;dashed=0;verticalLabelPosition=bottom;verticalAlign=top;align=center;html=1;fontSize=12;fontStyle=0;aspect=fixed;pointerEvents=1;shape=mxgraph.aws4.gear;rounded=1;" parent="5yhpN9zNZQplvpEK3OU1-228" vertex="1">
          <mxGeometry x="286" y="11" width="17" height="17" as="geometry" />
        </mxCell>
        <mxCell id="5yhpN9zNZQplvpEK3OU1-231" value="Поиск товаров" style="text;html=1;align=center;verticalAlign=middle;whiteSpace=wrap;rounded=1;fontSize=13;fontColor=#FFFFFF;strokeColor=none;" parent="5yhpN9zNZQplvpEK3OU1-228" vertex="1">
          <mxGeometry x="3" y="4.5" width="99" height="30" as="geometry" />
        </mxCell>
        <mxCell id="5yhpN9zNZQplvpEK3OU1-232" value="" style="group" parent="1" vertex="1" connectable="0">
          <mxGeometry x="2725" y="1906.5" width="309" height="39" as="geometry" />
        </mxCell>
        <mxCell id="5yhpN9zNZQplvpEK3OU1-233" value="" style="rounded=1;whiteSpace=wrap;html=1;fillColor=#1C57CD;strokeColor=none;" parent="5yhpN9zNZQplvpEK3OU1-232" vertex="1">
          <mxGeometry width="309" height="39" as="geometry" />
        </mxCell>
        <mxCell id="5yhpN9zNZQplvpEK3OU1-234" value="" style="sketch=0;outlineConnect=0;fontColor=#232F3E;gradientColor=none;fillColor=#FFFFFF;strokeColor=none;dashed=0;verticalLabelPosition=bottom;verticalAlign=top;align=center;html=1;fontSize=12;fontStyle=0;aspect=fixed;pointerEvents=1;shape=mxgraph.aws4.gear;rounded=1;" parent="5yhpN9zNZQplvpEK3OU1-232" vertex="1">
          <mxGeometry x="286" y="11" width="17" height="17" as="geometry" />
        </mxCell>
        <mxCell id="5yhpN9zNZQplvpEK3OU1-235" value="Поиск услуг" style="text;html=1;align=center;verticalAlign=middle;whiteSpace=wrap;rounded=1;fontSize=13;fontColor=#FFFFFF;strokeColor=none;" parent="5yhpN9zNZQplvpEK3OU1-232" vertex="1">
          <mxGeometry x="4" y="4" width="81" height="30" as="geometry" />
        </mxCell>
        <mxCell id="5yhpN9zNZQplvpEK3OU1-236" value="" style="group" parent="1" vertex="1" connectable="0">
          <mxGeometry x="984.5" y="1770" width="309" height="39" as="geometry" />
        </mxCell>
        <mxCell id="5yhpN9zNZQplvpEK3OU1-237" value="" style="rounded=1;whiteSpace=wrap;html=1;fillColor=#1C57CD;strokeColor=none;" parent="5yhpN9zNZQplvpEK3OU1-236" vertex="1">
          <mxGeometry width="309" height="39" as="geometry" />
        </mxCell>
        <mxCell id="5yhpN9zNZQplvpEK3OU1-238" value="" style="sketch=0;outlineConnect=0;fontColor=#232F3E;gradientColor=none;fillColor=#FFFFFF;strokeColor=none;dashed=0;verticalLabelPosition=bottom;verticalAlign=top;align=center;html=1;fontSize=12;fontStyle=0;aspect=fixed;pointerEvents=1;shape=mxgraph.aws4.gear;rounded=1;" parent="5yhpN9zNZQplvpEK3OU1-236" vertex="1">
          <mxGeometry x="286" y="11" width="17" height="17" as="geometry" />
        </mxCell>
        <mxCell id="5yhpN9zNZQplvpEK3OU1-239" value="Фильтрация и сортировка результатов" style="text;html=1;align=center;verticalAlign=middle;whiteSpace=wrap;rounded=1;fontSize=13;fontColor=#FFFFFF;strokeColor=none;" parent="5yhpN9zNZQplvpEK3OU1-236" vertex="1">
          <mxGeometry x="5" y="4.5" width="248" height="30" as="geometry" />
        </mxCell>
        <mxCell id="5yhpN9zNZQplvpEK3OU1-240" value="" style="group" parent="1" vertex="1" connectable="0">
          <mxGeometry x="984.5" y="1600" width="309" height="39" as="geometry" />
        </mxCell>
        <mxCell id="5yhpN9zNZQplvpEK3OU1-241" value="" style="rounded=1;whiteSpace=wrap;html=1;fillColor=#1C57CD;strokeColor=none;" parent="5yhpN9zNZQplvpEK3OU1-240" vertex="1">
          <mxGeometry width="309" height="39" as="geometry" />
        </mxCell>
        <mxCell id="5yhpN9zNZQplvpEK3OU1-242" value="" style="sketch=0;outlineConnect=0;fontColor=#232F3E;gradientColor=none;fillColor=#FFFFFF;strokeColor=none;dashed=0;verticalLabelPosition=bottom;verticalAlign=top;align=center;html=1;fontSize=12;fontStyle=0;aspect=fixed;pointerEvents=1;shape=mxgraph.aws4.gear;rounded=1;" parent="5yhpN9zNZQplvpEK3OU1-240" vertex="1">
          <mxGeometry x="286" y="11" width="17" height="17" as="geometry" />
        </mxCell>
        <mxCell id="5yhpN9zNZQplvpEK3OU1-243" value="Сгенерировать отчёт по продажам" style="text;html=1;align=center;verticalAlign=middle;whiteSpace=wrap;rounded=1;fontSize=13;fontColor=#FFFFFF;strokeColor=none;" parent="5yhpN9zNZQplvpEK3OU1-240" vertex="1">
          <mxGeometry x="6" y="4.5" width="226" height="30" as="geometry" />
        </mxCell>
        <mxCell id="5yhpN9zNZQplvpEK3OU1-244" value="" style="group" parent="1" vertex="1" connectable="0">
          <mxGeometry x="984.5" y="1720" width="309" height="39" as="geometry" />
        </mxCell>
        <mxCell id="5yhpN9zNZQplvpEK3OU1-245" value="" style="rounded=1;whiteSpace=wrap;html=1;fillColor=#1C57CD;strokeColor=none;" parent="5yhpN9zNZQplvpEK3OU1-244" vertex="1">
          <mxGeometry width="309" height="39" as="geometry" />
        </mxCell>
        <mxCell id="5yhpN9zNZQplvpEK3OU1-246" value="" style="sketch=0;outlineConnect=0;fontColor=#232F3E;gradientColor=none;fillColor=#FFFFFF;strokeColor=none;dashed=0;verticalLabelPosition=bottom;verticalAlign=top;align=center;html=1;fontSize=12;fontStyle=0;aspect=fixed;pointerEvents=1;shape=mxgraph.aws4.gear;rounded=1;" parent="5yhpN9zNZQplvpEK3OU1-244" vertex="1">
          <mxGeometry x="286" y="11" width="17" height="17" as="geometry" />
        </mxCell>
        <mxCell id="5yhpN9zNZQplvpEK3OU1-247" value="Отобразить статистику заказов" style="text;html=1;align=center;verticalAlign=middle;whiteSpace=wrap;rounded=1;fontSize=13;fontColor=#FFFFFF;strokeColor=none;" parent="5yhpN9zNZQplvpEK3OU1-244" vertex="1">
          <mxGeometry x="6.5" y="4.5" width="202" height="30" as="geometry" />
        </mxCell>
        <mxCell id="5yhpN9zNZQplvpEK3OU1-248" value="" style="group" parent="1" vertex="1" connectable="0">
          <mxGeometry x="2210" y="1915.5" width="309" height="39" as="geometry" />
        </mxCell>
        <mxCell id="5yhpN9zNZQplvpEK3OU1-249" value="" style="rounded=1;whiteSpace=wrap;html=1;fillColor=#1C57CD;strokeColor=none;" parent="5yhpN9zNZQplvpEK3OU1-248" vertex="1">
          <mxGeometry width="309" height="39" as="geometry" />
        </mxCell>
        <mxCell id="5yhpN9zNZQplvpEK3OU1-250" value="" style="sketch=0;outlineConnect=0;fontColor=#232F3E;gradientColor=none;fillColor=#FFFFFF;strokeColor=none;dashed=0;verticalLabelPosition=bottom;verticalAlign=top;align=center;html=1;fontSize=12;fontStyle=0;aspect=fixed;pointerEvents=1;shape=mxgraph.aws4.gear;rounded=1;" parent="5yhpN9zNZQplvpEK3OU1-248" vertex="1">
          <mxGeometry x="280" y="11" width="17" height="17" as="geometry" />
        </mxCell>
        <mxCell id="5yhpN9zNZQplvpEK3OU1-251" value="Обновление статуса аукциона" style="text;html=1;align=center;verticalAlign=middle;whiteSpace=wrap;rounded=1;fontSize=13;fontColor=#FFFFFF;strokeColor=none;" parent="5yhpN9zNZQplvpEK3OU1-248" vertex="1">
          <mxGeometry y="4.5" width="202" height="30" as="geometry" />
        </mxCell>
        <mxCell id="5yhpN9zNZQplvpEK3OU1-256" value="" style="group" parent="1" vertex="1" connectable="0">
          <mxGeometry x="984.5" y="1660" width="309" height="39" as="geometry" />
        </mxCell>
        <mxCell id="5yhpN9zNZQplvpEK3OU1-257" value="" style="rounded=1;whiteSpace=wrap;html=1;fillColor=#1C57CD;strokeColor=none;" parent="5yhpN9zNZQplvpEK3OU1-256" vertex="1">
          <mxGeometry width="309" height="39" as="geometry" />
        </mxCell>
        <mxCell id="5yhpN9zNZQplvpEK3OU1-258" value="" style="sketch=0;outlineConnect=0;fontColor=#232F3E;gradientColor=none;fillColor=#FFFFFF;strokeColor=none;dashed=0;verticalLabelPosition=bottom;verticalAlign=top;align=center;html=1;fontSize=12;fontStyle=0;aspect=fixed;pointerEvents=1;shape=mxgraph.aws4.gear;rounded=1;" parent="5yhpN9zNZQplvpEK3OU1-256" vertex="1">
          <mxGeometry x="280" y="11" width="17" height="17" as="geometry" />
        </mxCell>
        <mxCell id="5yhpN9zNZQplvpEK3OU1-259" value="Сгенерировать отчёт активности пользователей" style="text;html=1;align=center;verticalAlign=middle;whiteSpace=wrap;rounded=1;fontSize=13;fontColor=#FFFFFF;strokeColor=none;" parent="5yhpN9zNZQplvpEK3OU1-256" vertex="1">
          <mxGeometry x="5" y="6" width="215" height="30" as="geometry" />
        </mxCell>
        <mxCell id="5yhpN9zNZQplvpEK3OU1-264" value="" style="group" parent="1" vertex="1" connectable="0">
          <mxGeometry x="810" y="1077.76" width="309" height="39" as="geometry" />
        </mxCell>
        <mxCell id="5yhpN9zNZQplvpEK3OU1-265" value="" style="rounded=1;whiteSpace=wrap;html=1;fillColor=#1C57CD;strokeColor=none;" parent="5yhpN9zNZQplvpEK3OU1-264" vertex="1">
          <mxGeometry width="309" height="39" as="geometry" />
        </mxCell>
        <mxCell id="5yhpN9zNZQplvpEK3OU1-266" value="" style="sketch=0;outlineConnect=0;fontColor=#232F3E;gradientColor=none;fillColor=#FFFFFF;strokeColor=none;dashed=0;verticalLabelPosition=bottom;verticalAlign=top;align=center;html=1;fontSize=12;fontStyle=0;aspect=fixed;pointerEvents=1;shape=mxgraph.aws4.gear;rounded=1;" parent="5yhpN9zNZQplvpEK3OU1-264" vertex="1">
          <mxGeometry x="280" y="11" width="17" height="17" as="geometry" />
        </mxCell>
        <mxCell id="5yhpN9zNZQplvpEK3OU1-267" value="Регистрация заявки на техподдержку" style="text;html=1;align=center;verticalAlign=middle;whiteSpace=wrap;rounded=1;fontSize=13;fontColor=#FFFFFF;strokeColor=none;" parent="5yhpN9zNZQplvpEK3OU1-264" vertex="1">
          <mxGeometry x="4" y="4.5" width="249" height="30" as="geometry" />
        </mxCell>
        <mxCell id="5yhpN9zNZQplvpEK3OU1-268" value="" style="group" parent="1" vertex="1" connectable="0">
          <mxGeometry x="810" y="1031.76" width="309" height="39" as="geometry" />
        </mxCell>
        <mxCell id="5yhpN9zNZQplvpEK3OU1-269" value="" style="rounded=1;whiteSpace=wrap;html=1;fillColor=#1C57CD;strokeColor=none;" parent="5yhpN9zNZQplvpEK3OU1-268" vertex="1">
          <mxGeometry width="309" height="39" as="geometry" />
        </mxCell>
        <mxCell id="5yhpN9zNZQplvpEK3OU1-270" value="" style="sketch=0;outlineConnect=0;fontColor=#232F3E;gradientColor=none;fillColor=#FFFFFF;strokeColor=none;dashed=0;verticalLabelPosition=bottom;verticalAlign=top;align=center;html=1;fontSize=12;fontStyle=0;aspect=fixed;pointerEvents=1;shape=mxgraph.aws4.gear;rounded=1;" parent="5yhpN9zNZQplvpEK3OU1-268" vertex="1">
          <mxGeometry x="280" y="11" width="17" height="17" as="geometry" />
        </mxCell>
        <mxCell id="5yhpN9zNZQplvpEK3OU1-271" value="Создать заявку на техподдержку" style="text;html=1;align=center;verticalAlign=middle;whiteSpace=wrap;rounded=1;fontSize=13;fontColor=#FFFFFF;strokeColor=none;" parent="5yhpN9zNZQplvpEK3OU1-268" vertex="1">
          <mxGeometry y="4.5" width="230" height="30" as="geometry" />
        </mxCell>
        <mxCell id="5yhpN9zNZQplvpEK3OU1-272" value="" style="group" parent="1" vertex="1" connectable="0">
          <mxGeometry x="2649.5" y="346" width="309" height="39" as="geometry" />
        </mxCell>
        <mxCell id="5yhpN9zNZQplvpEK3OU1-273" value="" style="rounded=1;whiteSpace=wrap;html=1;fillColor=#1C57CD;strokeColor=none;" parent="5yhpN9zNZQplvpEK3OU1-272" vertex="1">
          <mxGeometry width="309" height="39" as="geometry" />
        </mxCell>
        <mxCell id="5yhpN9zNZQplvpEK3OU1-274" value="" style="sketch=0;outlineConnect=0;fontColor=#232F3E;gradientColor=none;fillColor=#FFFFFF;strokeColor=none;dashed=0;verticalLabelPosition=bottom;verticalAlign=top;align=center;html=1;fontSize=12;fontStyle=0;aspect=fixed;pointerEvents=1;shape=mxgraph.aws4.gear;rounded=1;" parent="5yhpN9zNZQplvpEK3OU1-272" vertex="1">
          <mxGeometry x="280" y="11" width="17" height="17" as="geometry" />
        </mxCell>
        <mxCell id="5yhpN9zNZQplvpEK3OU1-275" value="Обновить статус заявки на апелляцию" style="text;html=1;align=center;verticalAlign=middle;whiteSpace=wrap;rounded=1;fontSize=13;fontColor=#FFFFFF;strokeColor=none;" parent="5yhpN9zNZQplvpEK3OU1-272" vertex="1">
          <mxGeometry x="3" y="4.5" width="250" height="30" as="geometry" />
        </mxCell>
        <mxCell id="5yhpN9zNZQplvpEK3OU1-276" value="" style="group" parent="1" vertex="1" connectable="0">
          <mxGeometry x="2649.5" y="301" width="309" height="39" as="geometry" />
        </mxCell>
        <mxCell id="5yhpN9zNZQplvpEK3OU1-277" value="" style="rounded=1;whiteSpace=wrap;html=1;fillColor=#1C57CD;strokeColor=none;" parent="5yhpN9zNZQplvpEK3OU1-276" vertex="1">
          <mxGeometry width="309" height="39" as="geometry" />
        </mxCell>
        <mxCell id="5yhpN9zNZQplvpEK3OU1-278" value="" style="sketch=0;outlineConnect=0;fontColor=#232F3E;gradientColor=none;fillColor=#FFFFFF;strokeColor=none;dashed=0;verticalLabelPosition=bottom;verticalAlign=top;align=center;html=1;fontSize=12;fontStyle=0;aspect=fixed;pointerEvents=1;shape=mxgraph.aws4.gear;rounded=1;" parent="5yhpN9zNZQplvpEK3OU1-276" vertex="1">
          <mxGeometry x="280" y="11" width="17" height="17" as="geometry" />
        </mxCell>
        <mxCell id="5yhpN9zNZQplvpEK3OU1-279" value="Регистрация заявки на апелляцию" style="text;html=1;align=center;verticalAlign=middle;whiteSpace=wrap;rounded=1;fontSize=13;fontColor=#FFFFFF;strokeColor=none;" parent="5yhpN9zNZQplvpEK3OU1-276" vertex="1">
          <mxGeometry x="1" y="4.5" width="227" height="30" as="geometry" />
        </mxCell>
        <mxCell id="5yhpN9zNZQplvpEK3OU1-280" value="" style="group" parent="1" vertex="1" connectable="0">
          <mxGeometry x="2649.5" y="254" width="309" height="39" as="geometry" />
        </mxCell>
        <mxCell id="5yhpN9zNZQplvpEK3OU1-281" value="" style="rounded=1;whiteSpace=wrap;html=1;fillColor=#1C57CD;strokeColor=none;" parent="5yhpN9zNZQplvpEK3OU1-280" vertex="1">
          <mxGeometry width="309" height="39" as="geometry" />
        </mxCell>
        <mxCell id="5yhpN9zNZQplvpEK3OU1-282" value="" style="sketch=0;outlineConnect=0;fontColor=#232F3E;gradientColor=none;fillColor=#FFFFFF;strokeColor=none;dashed=0;verticalLabelPosition=bottom;verticalAlign=top;align=center;html=1;fontSize=12;fontStyle=0;aspect=fixed;pointerEvents=1;shape=mxgraph.aws4.gear;rounded=1;" parent="5yhpN9zNZQplvpEK3OU1-280" vertex="1">
          <mxGeometry x="280" y="11" width="17" height="17" as="geometry" />
        </mxCell>
        <mxCell id="5yhpN9zNZQplvpEK3OU1-283" value="Создать заявку на апелляцию&amp;nbsp;" style="text;html=1;align=center;verticalAlign=middle;whiteSpace=wrap;rounded=1;fontSize=13;fontColor=#FFFFFF;strokeColor=none;" parent="5yhpN9zNZQplvpEK3OU1-280" vertex="1">
          <mxGeometry x="4" y="4.5" width="202" height="30" as="geometry" />
        </mxCell>
        <mxCell id="5yhpN9zNZQplvpEK3OU1-304" value="" style="group" parent="1" vertex="1" connectable="0">
          <mxGeometry x="2998.5" y="1122.63" width="309" height="39" as="geometry" />
        </mxCell>
        <mxCell id="5yhpN9zNZQplvpEK3OU1-305" value="" style="rounded=1;whiteSpace=wrap;html=1;fillColor=#1C57CD;strokeColor=none;" parent="5yhpN9zNZQplvpEK3OU1-304" vertex="1">
          <mxGeometry width="309" height="39" as="geometry" />
        </mxCell>
        <mxCell id="5yhpN9zNZQplvpEK3OU1-306" value="" style="sketch=0;outlineConnect=0;fontColor=#232F3E;gradientColor=none;fillColor=#FFFFFF;strokeColor=none;dashed=0;verticalLabelPosition=bottom;verticalAlign=top;align=center;html=1;fontSize=12;fontStyle=0;aspect=fixed;pointerEvents=1;shape=mxgraph.aws4.gear;rounded=1;" parent="5yhpN9zNZQplvpEK3OU1-304" vertex="1">
          <mxGeometry x="280" y="11" width="17" height="17" as="geometry" />
        </mxCell>
        <mxCell id="5yhpN9zNZQplvpEK3OU1-307" value="Учёт платёжной операции" style="text;html=1;align=center;verticalAlign=middle;whiteSpace=wrap;rounded=1;fontSize=13;fontColor=#FFFFFF;strokeColor=none;" parent="5yhpN9zNZQplvpEK3OU1-304" vertex="1">
          <mxGeometry x="5" y="4.5" width="173" height="30" as="geometry" />
        </mxCell>
        <mxCell id="5yhpN9zNZQplvpEK3OU1-312" value="" style="group" parent="1" vertex="1" connectable="0">
          <mxGeometry x="2840" y="-410" width="260" height="39" as="geometry" />
        </mxCell>
        <mxCell id="5yhpN9zNZQplvpEK3OU1-313" value="" style="rounded=1;whiteSpace=wrap;html=1;fillColor=#ffe6cc;strokeColor=#d79b00;" parent="5yhpN9zNZQplvpEK3OU1-312" vertex="1">
          <mxGeometry x="10" width="250" height="39" as="geometry" />
        </mxCell>
        <mxCell id="5yhpN9zNZQplvpEK3OU1-314" value="" style="sketch=0;outlineConnect=0;fontColor=#232F3E;gradientColor=none;fillColor=#232F3D;strokeColor=none;dashed=0;verticalLabelPosition=bottom;verticalAlign=top;align=center;html=1;fontSize=12;fontStyle=0;aspect=fixed;pointerEvents=1;shape=mxgraph.aws4.gear;rounded=1;" parent="5yhpN9zNZQplvpEK3OU1-312" vertex="1">
          <mxGeometry x="230" y="11" width="17" height="17" as="geometry" />
        </mxCell>
        <mxCell id="5yhpN9zNZQplvpEK3OU1-315" value="Инициировать платёж" style="text;html=1;align=center;verticalAlign=middle;whiteSpace=wrap;rounded=1;fontSize=13;" parent="5yhpN9zNZQplvpEK3OU1-312" vertex="1">
          <mxGeometry y="4.5" width="170" height="30" as="geometry" />
        </mxCell>
        <mxCell id="5yhpN9zNZQplvpEK3OU1-316" value="" style="group" parent="1" vertex="1" connectable="0">
          <mxGeometry x="2840" y="-360" width="260" height="39" as="geometry" />
        </mxCell>
        <mxCell id="5yhpN9zNZQplvpEK3OU1-317" value="" style="rounded=1;whiteSpace=wrap;html=1;fillColor=#ffe6cc;strokeColor=#d79b00;" parent="5yhpN9zNZQplvpEK3OU1-316" vertex="1">
          <mxGeometry x="10" width="250" height="39" as="geometry" />
        </mxCell>
        <mxCell id="5yhpN9zNZQplvpEK3OU1-318" value="" style="sketch=0;outlineConnect=0;fontColor=#232F3E;gradientColor=none;fillColor=#232F3D;strokeColor=none;dashed=0;verticalLabelPosition=bottom;verticalAlign=top;align=center;html=1;fontSize=12;fontStyle=0;aspect=fixed;pointerEvents=1;shape=mxgraph.aws4.gear;rounded=1;" parent="5yhpN9zNZQplvpEK3OU1-316" vertex="1">
          <mxGeometry x="230" y="11" width="17" height="17" as="geometry" />
        </mxCell>
        <mxCell id="5yhpN9zNZQplvpEK3OU1-319" value="Подтвердить платёж" style="text;html=1;align=center;verticalAlign=middle;whiteSpace=wrap;rounded=1;fontSize=13;" parent="5yhpN9zNZQplvpEK3OU1-316" vertex="1">
          <mxGeometry y="4.5" width="170" height="30" as="geometry" />
        </mxCell>
        <mxCell id="5yhpN9zNZQplvpEK3OU1-320" value="" style="group" parent="1" vertex="1" connectable="0">
          <mxGeometry x="2850" y="-310" width="250" height="39" as="geometry" />
        </mxCell>
        <mxCell id="5yhpN9zNZQplvpEK3OU1-321" value="" style="rounded=1;whiteSpace=wrap;html=1;fillColor=#ffe6cc;strokeColor=#d79b00;" parent="5yhpN9zNZQplvpEK3OU1-320" vertex="1">
          <mxGeometry width="250" height="39" as="geometry" />
        </mxCell>
        <mxCell id="5yhpN9zNZQplvpEK3OU1-322" value="" style="sketch=0;outlineConnect=0;fontColor=#232F3E;gradientColor=none;fillColor=#232F3D;strokeColor=none;dashed=0;verticalLabelPosition=bottom;verticalAlign=top;align=center;html=1;fontSize=12;fontStyle=0;aspect=fixed;pointerEvents=1;shape=mxgraph.aws4.gear;rounded=1;" parent="5yhpN9zNZQplvpEK3OU1-320" vertex="1">
          <mxGeometry x="220" y="11" width="17" height="17" as="geometry" />
        </mxCell>
        <mxCell id="5yhpN9zNZQplvpEK3OU1-323" value="Предоставить статус платежа" style="text;html=1;align=center;verticalAlign=middle;whiteSpace=wrap;rounded=1;fontSize=13;" parent="5yhpN9zNZQplvpEK3OU1-320" vertex="1">
          <mxGeometry y="4.5" width="200" height="30" as="geometry" />
        </mxCell>
        <mxCell id="5yhpN9zNZQplvpEK3OU1-324" value="" style="group" parent="1" vertex="1" connectable="0">
          <mxGeometry x="2840" y="-260" width="260" height="39" as="geometry" />
        </mxCell>
        <mxCell id="5yhpN9zNZQplvpEK3OU1-325" value="" style="rounded=1;whiteSpace=wrap;html=1;fillColor=#ffe6cc;strokeColor=#d79b00;" parent="5yhpN9zNZQplvpEK3OU1-324" vertex="1">
          <mxGeometry x="10" width="250" height="39" as="geometry" />
        </mxCell>
        <mxCell id="5yhpN9zNZQplvpEK3OU1-326" value="" style="sketch=0;outlineConnect=0;fontColor=#232F3E;gradientColor=none;fillColor=#232F3D;strokeColor=none;dashed=0;verticalLabelPosition=bottom;verticalAlign=top;align=center;html=1;fontSize=12;fontStyle=0;aspect=fixed;pointerEvents=1;shape=mxgraph.aws4.gear;rounded=1;" parent="5yhpN9zNZQplvpEK3OU1-324" vertex="1">
          <mxGeometry x="230" y="11" width="17" height="17" as="geometry" />
        </mxCell>
        <mxCell id="5yhpN9zNZQplvpEK3OU1-327" value="Подтвердить отмену платежа" style="text;html=1;align=center;verticalAlign=middle;whiteSpace=wrap;rounded=1;fontSize=13;" parent="5yhpN9zNZQplvpEK3OU1-324" vertex="1">
          <mxGeometry y="4.5" width="210" height="30" as="geometry" />
        </mxCell>
        <mxCell id="5yhpN9zNZQplvpEK3OU1-331" value="" style="group" parent="1" vertex="1" connectable="0">
          <mxGeometry x="1512" y="3032" width="270" height="39" as="geometry" />
        </mxCell>
        <mxCell id="5yhpN9zNZQplvpEK3OU1-332" value="" style="rounded=1;whiteSpace=wrap;html=1;strokeColor=none;fillColor=#1C57CD;" parent="5yhpN9zNZQplvpEK3OU1-331" vertex="1">
          <mxGeometry width="270" height="39" as="geometry" />
        </mxCell>
        <mxCell id="5yhpN9zNZQplvpEK3OU1-333" value="" style="sketch=0;outlineConnect=0;fontColor=#FFFFFF;gradientColor=none;fillColor=#FFFFFF;strokeColor=none;dashed=0;verticalLabelPosition=bottom;verticalAlign=top;align=center;html=1;fontSize=12;fontStyle=0;aspect=fixed;pointerEvents=1;shape=mxgraph.aws4.gear;rounded=1;" parent="5yhpN9zNZQplvpEK3OU1-331" vertex="1">
          <mxGeometry x="238" y="12" width="17" height="17" as="geometry" />
        </mxCell>
        <mxCell id="5yhpN9zNZQplvpEK3OU1-334" value="&lt;font style=&quot;font-size: 18px;&quot;&gt;Функция&lt;/font&gt;" style="text;html=1;align=center;verticalAlign=middle;whiteSpace=wrap;rounded=1;fontSize=13;fontColor=#FFFFFF;" parent="5yhpN9zNZQplvpEK3OU1-331" vertex="1">
          <mxGeometry x="22" y="5" width="78" height="30" as="geometry" />
        </mxCell>
        <mxCell id="5yhpN9zNZQplvpEK3OU1-335" value="" style="group" parent="1" vertex="1" connectable="0">
          <mxGeometry x="1828" y="3039" width="157" height="25" as="geometry" />
        </mxCell>
        <mxCell id="5yhpN9zNZQplvpEK3OU1-336" value="&lt;p style=&quot;margin: 0px 0px 0px 13px; text-indent: -13px; font-variant-numeric: normal; font-variant-east-asian: normal; font-variant-alternates: normal; font-kerning: auto; font-optical-sizing: auto; font-feature-settings: normal; font-variation-settings: normal; font-variant-position: normal; font-stretch: normal; font-size: 14px; line-height: normal; color: rgb(14, 14, 14); text-align: start;&quot; class=&quot;p1&quot;&gt;&lt;br&gt;&lt;/p&gt;" style="rounded=1;whiteSpace=wrap;html=1;fillColor=#FF77BF;strokeColor=none;arcSize=33;" parent="5yhpN9zNZQplvpEK3OU1-335" vertex="1">
          <mxGeometry x="3" y="1" width="151" height="24" as="geometry" />
        </mxCell>
        <mxCell id="5yhpN9zNZQplvpEK3OU1-337" value="&lt;span style=&quot;font-size: 18px;&quot;&gt;&lt;i&gt;Стэк/Окружение&lt;/i&gt;&lt;/span&gt;" style="text;html=1;align=center;verticalAlign=middle;whiteSpace=wrap;rounded=1;shadow=0;fontSize=23;fontStyle=1" parent="5yhpN9zNZQplvpEK3OU1-335" vertex="1">
          <mxGeometry width="157" height="17" as="geometry" />
        </mxCell>
        <mxCell id="5yhpN9zNZQplvpEK3OU1-338" value="" style="group" parent="1" vertex="1" connectable="0">
          <mxGeometry x="1152" y="3185" width="333" height="145" as="geometry" />
        </mxCell>
        <mxCell id="5yhpN9zNZQplvpEK3OU1-339" value="" style="rounded=1;whiteSpace=wrap;html=1;arcSize=5;fillColor=#fff2cc;strokeColor=#d6b656;" parent="5yhpN9zNZQplvpEK3OU1-338" vertex="1">
          <mxGeometry width="333" height="145" as="geometry" />
        </mxCell>
        <mxCell id="5yhpN9zNZQplvpEK3OU1-340" value="&lt;span style=&quot;font-weight: normal;&quot;&gt;Внешний/Партнёрский сервис&lt;/span&gt;" style="text;html=1;align=center;verticalAlign=middle;whiteSpace=wrap;rounded=1;shadow=0;fontSize=23;fontStyle=1" parent="5yhpN9zNZQplvpEK3OU1-338" vertex="1">
          <mxGeometry x="2" y="1" width="331" height="49" as="geometry" />
        </mxCell>
        <mxCell id="5yhpN9zNZQplvpEK3OU1-341" value="" style="group" parent="1" vertex="1" connectable="0">
          <mxGeometry x="1149" y="3017" width="331" height="143" as="geometry" />
        </mxCell>
        <mxCell id="5yhpN9zNZQplvpEK3OU1-342" value="" style="rounded=1;whiteSpace=wrap;html=1;arcSize=5;fillColor=#f5f5f5;strokeColor=#1C57CD;strokeWidth=3;" parent="5yhpN9zNZQplvpEK3OU1-341" vertex="1">
          <mxGeometry width="331" height="143" as="geometry" />
        </mxCell>
        <mxCell id="5yhpN9zNZQplvpEK3OU1-343" value="&lt;font style=&quot;font-size: 23px;&quot;&gt;Система/Сервис&lt;/font&gt;" style="text;html=1;align=center;verticalAlign=middle;whiteSpace=wrap;rounded=1;fontSize=13;" parent="5yhpN9zNZQplvpEK3OU1-341" vertex="1">
          <mxGeometry x="1" y="6" width="206" height="30" as="geometry" />
        </mxCell>
        <mxCell id="5yhpN9zNZQplvpEK3OU1-300" value="" style="group" parent="1" vertex="1" connectable="0">
          <mxGeometry x="2991.5" y="1072.63" width="316" height="39" as="geometry" />
        </mxCell>
        <mxCell id="5yhpN9zNZQplvpEK3OU1-301" value="" style="rounded=1;whiteSpace=wrap;html=1;fillColor=#1C57CD;strokeColor=none;" parent="5yhpN9zNZQplvpEK3OU1-300" vertex="1">
          <mxGeometry x="7" width="309" height="39" as="geometry" />
        </mxCell>
        <mxCell id="5yhpN9zNZQplvpEK3OU1-302" value="" style="sketch=0;outlineConnect=0;fontColor=#232F3E;gradientColor=none;fillColor=#FFFFFF;strokeColor=none;dashed=0;verticalLabelPosition=bottom;verticalAlign=top;align=center;html=1;fontSize=12;fontStyle=0;aspect=fixed;pointerEvents=1;shape=mxgraph.aws4.gear;rounded=1;" parent="5yhpN9zNZQplvpEK3OU1-300" vertex="1">
          <mxGeometry x="287" y="11" width="17" height="17" as="geometry" />
        </mxCell>
        <mxCell id="5yhpN9zNZQplvpEK3OU1-303" value="Авторизация платёжной операции" style="text;html=1;align=center;verticalAlign=middle;whiteSpace=wrap;rounded=1;fontSize=13;fontColor=#FFFFFF;strokeColor=none;" parent="5yhpN9zNZQplvpEK3OU1-300" vertex="1">
          <mxGeometry y="4.5" width="243" height="30" as="geometry" />
        </mxCell>
        <mxCell id="5yhpN9zNZQplvpEK3OU1-356" value="" style="group" parent="1" vertex="1" connectable="0">
          <mxGeometry x="820" y="196.5" width="309" height="39" as="geometry" />
        </mxCell>
        <mxCell id="5yhpN9zNZQplvpEK3OU1-357" value="" style="group" parent="5yhpN9zNZQplvpEK3OU1-356" vertex="1" connectable="0">
          <mxGeometry width="309" height="39" as="geometry" />
        </mxCell>
        <mxCell id="5yhpN9zNZQplvpEK3OU1-358" value="" style="rounded=1;whiteSpace=wrap;html=1;gradientColor=none;fillColor=#1C57CD;strokeColor=none;movable=1;resizable=1;rotatable=1;deletable=1;editable=1;locked=0;connectable=1;" parent="5yhpN9zNZQplvpEK3OU1-357" vertex="1">
          <mxGeometry width="309" height="39" as="geometry" />
        </mxCell>
        <mxCell id="5yhpN9zNZQplvpEK3OU1-359" value="" style="sketch=0;outlineConnect=0;dashed=0;verticalLabelPosition=bottom;verticalAlign=top;align=center;html=1;fontSize=12;fontStyle=0;aspect=fixed;pointerEvents=1;shape=mxgraph.aws4.gear;rounded=1;strokeColor=none;fillColor=default;" parent="5yhpN9zNZQplvpEK3OU1-357" vertex="1">
          <mxGeometry x="280" y="11" width="17" height="17" as="geometry" />
        </mxCell>
        <mxCell id="5yhpN9zNZQplvpEK3OU1-360" value="Регистрация пользователя" style="text;html=1;align=center;verticalAlign=middle;whiteSpace=wrap;rounded=1;fontSize=13;fontColor=#FFFFFF;strokeColor=none;movable=1;resizable=1;rotatable=1;deletable=1;editable=1;locked=0;connectable=1;" parent="5yhpN9zNZQplvpEK3OU1-357" vertex="1">
          <mxGeometry x="3" y="4.5" width="172" height="30" as="geometry" />
        </mxCell>
        <mxCell id="5yhpN9zNZQplvpEK3OU1-361" value="" style="group" parent="1" vertex="1" connectable="0">
          <mxGeometry x="820" y="245.5" width="309" height="39" as="geometry" />
        </mxCell>
        <mxCell id="5yhpN9zNZQplvpEK3OU1-362" value="" style="rounded=1;whiteSpace=wrap;html=1;fillColor=#1C57CD;strokeColor=none;" parent="5yhpN9zNZQplvpEK3OU1-361" vertex="1">
          <mxGeometry width="309" height="39" as="geometry" />
        </mxCell>
        <mxCell id="5yhpN9zNZQplvpEK3OU1-363" value="" style="sketch=0;outlineConnect=0;fontColor=#232F3E;gradientColor=none;fillColor=default;strokeColor=none;dashed=0;verticalLabelPosition=bottom;verticalAlign=top;align=center;html=1;fontSize=12;fontStyle=0;aspect=fixed;pointerEvents=1;shape=mxgraph.aws4.gear;rounded=1;" parent="5yhpN9zNZQplvpEK3OU1-361" vertex="1">
          <mxGeometry x="280" y="11" width="17" height="17" as="geometry" />
        </mxCell>
        <mxCell id="5yhpN9zNZQplvpEK3OU1-364" value="Аутентификация" style="text;html=1;align=center;verticalAlign=middle;whiteSpace=wrap;rounded=1;fontSize=13;fontColor=#FFFFFF;strokeColor=none;" parent="5yhpN9zNZQplvpEK3OU1-361" vertex="1">
          <mxGeometry x="2" y="4.5" width="114" height="30" as="geometry" />
        </mxCell>
        <mxCell id="5yhpN9zNZQplvpEK3OU1-365" value="" style="group" parent="1" vertex="1" connectable="0">
          <mxGeometry x="820" y="290.5" width="309" height="39" as="geometry" />
        </mxCell>
        <mxCell id="5yhpN9zNZQplvpEK3OU1-366" value="" style="rounded=1;whiteSpace=wrap;html=1;fillColor=#1C57CD;strokeColor=none;" parent="5yhpN9zNZQplvpEK3OU1-365" vertex="1">
          <mxGeometry width="309" height="39" as="geometry" />
        </mxCell>
        <mxCell id="5yhpN9zNZQplvpEK3OU1-367" value="" style="sketch=0;outlineConnect=0;fontColor=#232F3E;gradientColor=none;fillColor=default;strokeColor=none;dashed=0;verticalLabelPosition=bottom;verticalAlign=top;align=center;html=1;fontSize=12;fontStyle=0;aspect=fixed;pointerEvents=1;shape=mxgraph.aws4.gear;rounded=1;" parent="5yhpN9zNZQplvpEK3OU1-365" vertex="1">
          <mxGeometry x="280" y="11" width="17" height="17" as="geometry" />
        </mxCell>
        <mxCell id="5yhpN9zNZQplvpEK3OU1-368" value="Присвоение ролей" style="text;html=1;align=center;verticalAlign=middle;whiteSpace=wrap;rounded=1;fontSize=13;fontColor=#FFFFFF;strokeColor=none;" parent="5yhpN9zNZQplvpEK3OU1-365" vertex="1">
          <mxGeometry x="3" y="5" width="122" height="30" as="geometry" />
        </mxCell>
        <mxCell id="5yhpN9zNZQplvpEK3OU1-371" value="" style="strokeWidth=2;html=1;shape=mxgraph.flowchart.database;whiteSpace=wrap;rounded=1;movable=1;resizable=1;rotatable=1;deletable=1;editable=1;locked=0;connectable=1;strokeColor=#fa0000;" parent="1" vertex="1">
          <mxGeometry x="1688.5" y="2115" width="260" height="215.5" as="geometry" />
        </mxCell>
        <mxCell id="5yhpN9zNZQplvpEK3OU1-385" value="" style="group;labelBorderColor=#ff0000;" parent="1" vertex="1" connectable="0">
          <mxGeometry x="820.5" y="335" width="309" height="39" as="geometry" />
        </mxCell>
        <mxCell id="5yhpN9zNZQplvpEK3OU1-386" value="" style="rounded=1;whiteSpace=wrap;html=1;fillColor=#1C57CD;strokeColor=none;" parent="5yhpN9zNZQplvpEK3OU1-385" vertex="1">
          <mxGeometry width="309" height="39" as="geometry" />
        </mxCell>
        <mxCell id="5yhpN9zNZQplvpEK3OU1-387" value="" style="sketch=0;outlineConnect=0;fontColor=#232F3E;gradientColor=none;fillColor=default;strokeColor=none;dashed=0;verticalLabelPosition=bottom;verticalAlign=top;align=center;html=1;fontSize=12;fontStyle=0;aspect=fixed;pointerEvents=1;shape=mxgraph.aws4.gear;rounded=1;" parent="5yhpN9zNZQplvpEK3OU1-385" vertex="1">
          <mxGeometry x="280" y="11" width="17" height="17" as="geometry" />
        </mxCell>
        <mxCell id="5yhpN9zNZQplvpEK3OU1-388" value="Валидация токена безопасности" style="text;html=1;align=center;verticalAlign=middle;whiteSpace=wrap;rounded=1;fontSize=13;fontColor=#FFFFFF;strokeColor=none;" parent="5yhpN9zNZQplvpEK3OU1-385" vertex="1">
          <mxGeometry x="3" y="4.5" width="209" height="30" as="geometry" />
        </mxCell>
        <mxCell id="5yhpN9zNZQplvpEK3OU1-140" value="" style="group" parent="1" vertex="1" connectable="0">
          <mxGeometry x="2237" y="128.75" width="309" height="39" as="geometry" />
        </mxCell>
        <mxCell id="5yhpN9zNZQplvpEK3OU1-141" value="" style="rounded=1;whiteSpace=wrap;html=1;fillColor=#1C57CD;strokeColor=none;" parent="5yhpN9zNZQplvpEK3OU1-140" vertex="1">
          <mxGeometry width="309" height="39" as="geometry" />
        </mxCell>
        <mxCell id="5yhpN9zNZQplvpEK3OU1-142" value="" style="sketch=0;outlineConnect=0;fontColor=#232F3E;gradientColor=none;fillColor=default;strokeColor=none;dashed=0;verticalLabelPosition=bottom;verticalAlign=top;align=center;html=1;fontSize=12;fontStyle=0;aspect=fixed;pointerEvents=1;shape=mxgraph.aws4.gear;rounded=1;" parent="5yhpN9zNZQplvpEK3OU1-140" vertex="1">
          <mxGeometry x="280" y="11" width="17" height="17" as="geometry" />
        </mxCell>
        <mxCell id="5yhpN9zNZQplvpEK3OU1-143" value="Нотификация нового пользователя" style="text;html=1;align=center;verticalAlign=middle;whiteSpace=wrap;rounded=1;fontSize=13;fontColor=#FFFFFF;strokeColor=none;" parent="5yhpN9zNZQplvpEK3OU1-140" vertex="1">
          <mxGeometry x="3" y="4.5" width="227" height="30" as="geometry" />
        </mxCell>
        <mxCell id="5yhpN9zNZQplvpEK3OU1-224" value="" style="group" parent="1" vertex="1" connectable="0">
          <mxGeometry x="2237.5" y="231.75" width="309" height="39" as="geometry" />
        </mxCell>
        <mxCell id="5yhpN9zNZQplvpEK3OU1-225" value="" style="rounded=1;whiteSpace=wrap;html=1;fillColor=#1C57CD;strokeColor=none;" parent="5yhpN9zNZQplvpEK3OU1-224" vertex="1">
          <mxGeometry width="309" height="39" as="geometry" />
        </mxCell>
        <mxCell id="5yhpN9zNZQplvpEK3OU1-226" value="" style="sketch=0;outlineConnect=0;fontColor=#232F3E;gradientColor=none;fillColor=#FFFFFF;strokeColor=none;dashed=0;verticalLabelPosition=bottom;verticalAlign=top;align=center;html=1;fontSize=12;fontStyle=0;aspect=fixed;pointerEvents=1;shape=mxgraph.aws4.gear;rounded=1;" parent="5yhpN9zNZQplvpEK3OU1-224" vertex="1">
          <mxGeometry x="286" y="11" width="17" height="17" as="geometry" />
        </mxCell>
        <mxCell id="5yhpN9zNZQplvpEK3OU1-227" value="Нотификация участника аукциона" style="text;html=1;align=center;verticalAlign=middle;whiteSpace=wrap;rounded=1;fontSize=13;fontColor=#FFFFFF;strokeColor=none;" parent="5yhpN9zNZQplvpEK3OU1-224" vertex="1">
          <mxGeometry x="3" y="4.5" width="218" height="30" as="geometry" />
        </mxCell>
        <mxCell id="5yhpN9zNZQplvpEK3OU1-485" value="" style="group" parent="1" vertex="1" connectable="0">
          <mxGeometry x="1840" y="920" width="309" height="39" as="geometry" />
        </mxCell>
        <mxCell id="5yhpN9zNZQplvpEK3OU1-487" value="" style="sketch=0;outlineConnect=0;fontColor=#232F3E;gradientColor=none;fillColor=#FFFFFF;strokeColor=none;dashed=0;verticalLabelPosition=bottom;verticalAlign=top;align=center;html=1;fontSize=12;fontStyle=0;aspect=fixed;pointerEvents=1;shape=mxgraph.aws4.gear;rounded=1;" parent="5yhpN9zNZQplvpEK3OU1-485" vertex="1">
          <mxGeometry x="286" y="-74" width="17" height="17" as="geometry" />
        </mxCell>
        <mxCell id="5yhpN9zNZQplvpEK3OU1-488" value="Обновление ставок аукциона" style="text;html=1;align=center;verticalAlign=middle;whiteSpace=wrap;rounded=1;fontSize=13;fontColor=#FFFFFF;strokeColor=none;" parent="5yhpN9zNZQplvpEK3OU1-485" vertex="1">
          <mxGeometry x="4" y="4.5" width="189" height="30" as="geometry" />
        </mxCell>
        <mxCell id="5yhpN9zNZQplvpEK3OU1-489" value="" style="strokeWidth=2;html=1;shape=mxgraph.flowchart.database;whiteSpace=wrap;rounded=1;movable=1;resizable=1;rotatable=1;deletable=1;editable=1;locked=0;connectable=1;strokeColor=#f50000;" parent="1" vertex="1">
          <mxGeometry x="1869" y="1226.37" width="260" height="294" as="geometry" />
        </mxCell>
        <mxCell id="5yhpN9zNZQplvpEK3OU1-492" value="" style="group;fontColor=#FF3B3B;" parent="1" vertex="1" connectable="0">
          <mxGeometry x="1850" y="1006.75" width="313.5" height="219.62" as="geometry" />
        </mxCell>
        <mxCell id="sdnIlh2cug-v7nJpGOBW-10" value="А.5. Отправление пользователю, что он зарегистрирован и может начать торговать." style="edgeStyle=orthogonalEdgeStyle;rounded=0;orthogonalLoop=1;jettySize=auto;html=1;fontColor=#ff0000;strokeColor=#ff0000;" parent="5yhpN9zNZQplvpEK3OU1-492" source="5yhpN9zNZQplvpEK3OU1-472" edge="1">
          <mxGeometry relative="1" as="geometry">
            <mxPoint x="300" y="-746.75" as="targetPoint" />
            <Array as="points">
              <mxPoint x="300" y="-317" />
              <mxPoint x="300" y="-317" />
            </Array>
          </mxGeometry>
        </mxCell>
        <mxCell id="sdnIlh2cug-v7nJpGOBW-18" value="Б.8 Нотификация о покупке товара." style="edgeStyle=orthogonalEdgeStyle;rounded=0;orthogonalLoop=1;jettySize=auto;html=1;strokeColor=#ff0000;fontColor=#ff0000;" parent="5yhpN9zNZQplvpEK3OU1-492" source="5yhpN9zNZQplvpEK3OU1-472" edge="1">
          <mxGeometry relative="1" as="geometry">
            <mxPoint x="350" y="-736.75" as="targetPoint" />
          </mxGeometry>
        </mxCell>
        <mxCell id="5yhpN9zNZQplvpEK3OU1-472" value="Сервис: Управление товаром" style="rounded=1;whiteSpace=wrap;html=1;strokeColor=#ff0000;strokeWidth=3;align=center;horizontal=1;labelPosition=center;verticalLabelPosition=top;verticalAlign=bottom;fontSize=24;" parent="5yhpN9zNZQplvpEK3OU1-492" vertex="1">
          <mxGeometry x="-16.5" y="-174.13" width="330" height="393.75" as="geometry" />
        </mxCell>
        <mxCell id="5yhpN9zNZQplvpEK3OU1-493" value="" style="sketch=0;outlineConnect=0;fontColor=#232F3E;gradientColor=none;fillColor=#FFFFFF;strokeColor=none;dashed=0;verticalLabelPosition=bottom;verticalAlign=top;align=center;html=1;fontSize=12;fontStyle=0;aspect=fixed;pointerEvents=1;shape=mxgraph.aws4.gear;rounded=1;" parent="5yhpN9zNZQplvpEK3OU1-492" vertex="1">
          <mxGeometry x="286" y="-65.75" width="17" height="17" as="geometry" />
        </mxCell>
        <mxCell id="5yhpN9zNZQplvpEK3OU1-494" value="Обновление ставок аукциона" style="text;html=1;align=center;verticalAlign=middle;whiteSpace=wrap;rounded=1;fontSize=13;fontColor=#FFFFFF;strokeColor=none;" parent="5yhpN9zNZQplvpEK3OU1-492" vertex="1">
          <mxGeometry x="4" y="-72.25" width="189" height="30" as="geometry" />
        </mxCell>
        <mxCell id="5yhpN9zNZQplvpEK3OU1-296" value="" style="group" parent="5yhpN9zNZQplvpEK3OU1-492" vertex="1" connectable="0">
          <mxGeometry x="-9.5" y="-106.75" width="309" height="39" as="geometry" />
        </mxCell>
        <mxCell id="5yhpN9zNZQplvpEK3OU1-297" value="" style="rounded=1;whiteSpace=wrap;html=1;fillColor=#1C57CD;strokeColor=none;" parent="5yhpN9zNZQplvpEK3OU1-296" vertex="1">
          <mxGeometry width="309" height="39" as="geometry" />
        </mxCell>
        <mxCell id="5yhpN9zNZQplvpEK3OU1-298" value="" style="sketch=0;outlineConnect=0;fontColor=#232F3E;gradientColor=none;fillColor=#FFFFFF;strokeColor=none;dashed=0;verticalLabelPosition=bottom;verticalAlign=top;align=center;html=1;fontSize=12;fontStyle=0;aspect=fixed;pointerEvents=1;shape=mxgraph.aws4.gear;rounded=1;" parent="5yhpN9zNZQplvpEK3OU1-296" vertex="1">
          <mxGeometry x="280" y="11" width="17" height="17" as="geometry" />
        </mxCell>
        <mxCell id="5yhpN9zNZQplvpEK3OU1-299" value="Предоставить список и статус операций" style="text;html=1;align=center;verticalAlign=middle;whiteSpace=wrap;rounded=1;fontSize=13;fontColor=#FFFFFF;strokeColor=none;" parent="5yhpN9zNZQplvpEK3OU1-296" vertex="1">
          <mxGeometry y="4.5" width="263" height="30" as="geometry" />
        </mxCell>
        <mxCell id="5yhpN9zNZQplvpEK3OU1-292" value="" style="group" parent="5yhpN9zNZQplvpEK3OU1-492" vertex="1" connectable="0">
          <mxGeometry x="-9.5" y="-51.5" width="309" height="39" as="geometry" />
        </mxCell>
        <mxCell id="5yhpN9zNZQplvpEK3OU1-293" value="" style="rounded=1;whiteSpace=wrap;html=1;fillColor=#1C57CD;strokeColor=none;" parent="5yhpN9zNZQplvpEK3OU1-292" vertex="1">
          <mxGeometry width="309" height="39" as="geometry" />
        </mxCell>
        <mxCell id="5yhpN9zNZQplvpEK3OU1-294" value="" style="sketch=0;outlineConnect=0;fontColor=#232F3E;gradientColor=none;fillColor=#FFFFFF;strokeColor=none;dashed=0;verticalLabelPosition=bottom;verticalAlign=top;align=center;html=1;fontSize=12;fontStyle=0;aspect=fixed;pointerEvents=1;shape=mxgraph.aws4.gear;rounded=1;" parent="5yhpN9zNZQplvpEK3OU1-292" vertex="1">
          <mxGeometry x="280" y="11" width="17" height="17" as="geometry" />
        </mxCell>
        <mxCell id="5yhpN9zNZQplvpEK3OU1-295" value="Инициировать отмену транзакции" style="text;html=1;align=center;verticalAlign=middle;whiteSpace=wrap;rounded=1;fontSize=13;fontColor=#FFFFFF;strokeColor=none;" parent="5yhpN9zNZQplvpEK3OU1-292" vertex="1">
          <mxGeometry x="2" y="4" width="223" height="30" as="geometry" />
        </mxCell>
        <mxCell id="5yhpN9zNZQplvpEK3OU1-308" value="" style="group" parent="5yhpN9zNZQplvpEK3OU1-492" vertex="1" connectable="0">
          <mxGeometry x="-6" y="-156.75" width="309" height="39" as="geometry" />
        </mxCell>
        <mxCell id="5yhpN9zNZQplvpEK3OU1-309" value="" style="rounded=1;whiteSpace=wrap;html=1;fillColor=#1C57CD;strokeColor=none;" parent="5yhpN9zNZQplvpEK3OU1-308" vertex="1">
          <mxGeometry x="-3.5" width="309" height="39" as="geometry" />
        </mxCell>
        <mxCell id="5yhpN9zNZQplvpEK3OU1-310" value="" style="sketch=0;outlineConnect=0;fontColor=#232F3E;gradientColor=none;fillColor=#FFFFFF;strokeColor=none;dashed=0;verticalLabelPosition=bottom;verticalAlign=top;align=center;html=1;fontSize=12;fontStyle=0;aspect=fixed;pointerEvents=1;shape=mxgraph.aws4.gear;rounded=1;" parent="5yhpN9zNZQplvpEK3OU1-308" vertex="1">
          <mxGeometry x="280" y="11" width="17" height="17" as="geometry" />
        </mxCell>
        <mxCell id="5yhpN9zNZQplvpEK3OU1-311" value="Инициировать платёжную операцию" style="text;html=1;align=center;verticalAlign=middle;whiteSpace=wrap;rounded=1;fontSize=13;fontColor=#FFFFFF;strokeColor=none;" parent="5yhpN9zNZQplvpEK3OU1-308" vertex="1">
          <mxGeometry y="4.5" width="243" height="30" as="geometry" />
        </mxCell>
        <mxCell id="5yhpN9zNZQplvpEK3OU1-284" value="" style="group" parent="5yhpN9zNZQplvpEK3OU1-492" vertex="1" connectable="0">
          <mxGeometry x="-9.5" y="3.25" width="309" height="39" as="geometry" />
        </mxCell>
        <mxCell id="5yhpN9zNZQplvpEK3OU1-285" value="" style="rounded=1;whiteSpace=wrap;html=1;fillColor=#1C57CD;strokeColor=none;" parent="5yhpN9zNZQplvpEK3OU1-284" vertex="1">
          <mxGeometry width="309" height="39" as="geometry" />
        </mxCell>
        <mxCell id="5yhpN9zNZQplvpEK3OU1-286" value="" style="sketch=0;outlineConnect=0;fontColor=#232F3E;gradientColor=none;fillColor=#FFFFFF;strokeColor=none;dashed=0;verticalLabelPosition=bottom;verticalAlign=top;align=center;html=1;fontSize=12;fontStyle=0;aspect=fixed;pointerEvents=1;shape=mxgraph.aws4.gear;rounded=1;" parent="5yhpN9zNZQplvpEK3OU1-284" vertex="1">
          <mxGeometry x="280" y="11" width="17" height="17" as="geometry" />
        </mxCell>
        <mxCell id="5yhpN9zNZQplvpEK3OU1-287" value="Предоставить статус операции" style="text;html=1;align=center;verticalAlign=middle;whiteSpace=wrap;rounded=1;fontSize=13;fontColor=#FFFFFF;strokeColor=none;" parent="5yhpN9zNZQplvpEK3OU1-284" vertex="1">
          <mxGeometry y="4.5" width="207" height="30" as="geometry" />
        </mxCell>
        <mxCell id="5yhpN9zNZQplvpEK3OU1-288" value="" style="group" parent="5yhpN9zNZQplvpEK3OU1-492" vertex="1" connectable="0">
          <mxGeometry x="-9.5" y="53.25" width="309" height="39" as="geometry" />
        </mxCell>
        <mxCell id="5yhpN9zNZQplvpEK3OU1-289" value="" style="rounded=1;whiteSpace=wrap;html=1;fillColor=#1C57CD;strokeColor=none;" parent="5yhpN9zNZQplvpEK3OU1-288" vertex="1">
          <mxGeometry width="309" height="39" as="geometry" />
        </mxCell>
        <mxCell id="5yhpN9zNZQplvpEK3OU1-290" value="" style="sketch=0;outlineConnect=0;fontColor=#232F3E;gradientColor=none;fillColor=#FFFFFF;strokeColor=none;dashed=0;verticalLabelPosition=bottom;verticalAlign=top;align=center;html=1;fontSize=12;fontStyle=0;aspect=fixed;pointerEvents=1;shape=mxgraph.aws4.gear;rounded=1;" parent="5yhpN9zNZQplvpEK3OU1-288" vertex="1">
          <mxGeometry x="280" y="11" width="17" height="17" as="geometry" />
        </mxCell>
        <mxCell id="5yhpN9zNZQplvpEK3OU1-291" value="Запросить статус операции" style="text;html=1;align=center;verticalAlign=middle;whiteSpace=wrap;rounded=1;fontSize=13;fontColor=#FFFFFF;strokeColor=none;" parent="5yhpN9zNZQplvpEK3OU1-288" vertex="1">
          <mxGeometry x="3" y="6" width="179" height="30" as="geometry" />
        </mxCell>
        <mxCell id="5yhpN9zNZQplvpEK3OU1-260" value="" style="group" parent="5yhpN9zNZQplvpEK3OU1-492" vertex="1" connectable="0">
          <mxGeometry x="-10" y="103.25" width="309" height="39" as="geometry" />
        </mxCell>
        <mxCell id="5yhpN9zNZQplvpEK3OU1-261" value="" style="rounded=1;whiteSpace=wrap;html=1;fillColor=#1C57CD;strokeColor=none;" parent="5yhpN9zNZQplvpEK3OU1-260" vertex="1">
          <mxGeometry width="309" height="39" as="geometry" />
        </mxCell>
        <mxCell id="5yhpN9zNZQplvpEK3OU1-262" value="" style="sketch=0;outlineConnect=0;fontColor=#232F3E;gradientColor=none;fillColor=#FFFFFF;strokeColor=none;dashed=0;verticalLabelPosition=bottom;verticalAlign=top;align=center;html=1;fontSize=12;fontStyle=0;aspect=fixed;pointerEvents=1;shape=mxgraph.aws4.gear;rounded=1;" parent="5yhpN9zNZQplvpEK3OU1-260" vertex="1">
          <mxGeometry x="280" y="11" width="17" height="17" as="geometry" />
        </mxCell>
        <mxCell id="5yhpN9zNZQplvpEK3OU1-263" value="Обновление статуса заявки" style="text;html=1;align=center;verticalAlign=middle;whiteSpace=wrap;rounded=1;fontSize=13;fontColor=#FFFFFF;strokeColor=none;" parent="5yhpN9zNZQplvpEK3OU1-260" vertex="1">
          <mxGeometry x="8" y="4" width="176" height="30" as="geometry" />
        </mxCell>
        <mxCell id="5yhpN9zNZQplvpEK3OU1-516" value="Администратор" style="shape=umlActor;verticalLabelPosition=bottom;verticalAlign=top;html=1;outlineConnect=0;rounded=1;" parent="1" vertex="1">
          <mxGeometry x="159" y="1380" width="65" height="141" as="geometry" />
        </mxCell>
        <mxCell id="sdnIlh2cug-v7nJpGOBW-19" style="edgeStyle=orthogonalEdgeStyle;rounded=0;orthogonalLoop=1;jettySize=auto;html=1;fontColor=#FF0000;strokeColor=#FF3333;" parent="1" source="5yhpN9zNZQplvpEK3OU1-518" edge="1">
          <mxGeometry relative="1" as="geometry">
            <mxPoint x="1710" y="1680" as="targetPoint" />
            <Array as="points">
              <mxPoint x="331" y="1540" />
              <mxPoint x="1711" y="1540" />
              <mxPoint x="1711" y="1680" />
            </Array>
          </mxGeometry>
        </mxCell>
        <mxCell id="5yhpN9zNZQplvpEK3OU1-518" value="Редактировать аукцион&lt;div&gt;Валидировать заявку&lt;/div&gt;" style="text;html=1;align=center;verticalAlign=middle;whiteSpace=wrap;rounded=1;fontSize=13;" parent="1" vertex="1">
          <mxGeometry x="209" y="1459" width="243" height="30" as="geometry" />
        </mxCell>
        <mxCell id="5yhpN9zNZQplvpEK3OU1-519" value="Специалист поддержки" style="shape=umlActor;verticalLabelPosition=bottom;verticalAlign=top;html=1;outlineConnect=0;rounded=1;" parent="1" vertex="1">
          <mxGeometry x="160" y="1097.76" width="65" height="141" as="geometry" />
        </mxCell>
        <mxCell id="5yhpN9zNZQplvpEK3OU1-520" value="" style="endArrow=classic;html=1;rounded=1;dashed=1;entryX=-0.001;entryY=0.462;entryDx=0;entryDy=0;entryPerimeter=0;" parent="1" target="5yhpN9zNZQplvpEK3OU1-578" edge="1">
          <mxGeometry width="50" height="50" relative="1" as="geometry">
            <mxPoint x="229" y="1165.6043434343437" as="sourcePoint" />
            <mxPoint x="444" y="1165.17" as="targetPoint" />
            <Array as="points" />
          </mxGeometry>
        </mxCell>
        <mxCell id="5yhpN9zNZQplvpEK3OU1-521" value="&lt;div&gt;Изменить статус заявки&lt;/div&gt;&lt;div&gt;на поддержку&lt;/div&gt;" style="text;html=1;align=center;verticalAlign=middle;whiteSpace=wrap;rounded=1;fontSize=13;" parent="1" vertex="1">
          <mxGeometry x="209" y="1177.92" width="243" height="30" as="geometry" />
        </mxCell>
        <mxCell id="5yhpN9zNZQplvpEK3OU1-575" value="" style="strokeWidth=2;html=1;shape=mxgraph.flowchart.database;whiteSpace=wrap;rounded=1;movable=1;resizable=1;rotatable=1;deletable=1;editable=1;locked=0;connectable=1;strokeColor=#fa0000;" parent="1" vertex="1">
          <mxGeometry x="2680" y="649.5" width="260" height="144.5" as="geometry" />
        </mxCell>
        <mxCell id="5yhpN9zNZQplvpEK3OU1-602" value="&lt;p style=&quot;margin: 0px 0px 0px 13px; text-indent: -13px; font-variant-numeric: normal; font-variant-east-asian: normal; font-variant-alternates: normal; font-kerning: auto; font-optical-sizing: auto; font-feature-settings: normal; font-variation-settings: normal; font-variant-position: normal; font-stretch: normal; line-height: normal; text-align: start;&quot; class=&quot;p1&quot;&gt;&lt;span style=&quot;text-align: center; text-indent: 0px;&quot;&gt;&lt;font style=&quot;font-size: 14px;&quot; face=&quot;Times New Roman&quot;&gt;[Транзакция.ID]&lt;/font&gt;&lt;/span&gt;&lt;br&gt;&lt;/p&gt;" style="rounded=1;whiteSpace=wrap;html=1;fillColor=#B8B8B8;strokeColor=#FFD966;" parent="1" vertex="1">
          <mxGeometry x="1935.5" y="1380" width="104" height="21" as="geometry" />
        </mxCell>
        <mxCell id="5yhpN9zNZQplvpEK3OU1-603" value="&lt;p style=&quot;margin: 0px 0px 0px 13px; text-indent: -13px; font-variant-numeric: normal; font-variant-east-asian: normal; font-variant-alternates: normal; font-kerning: auto; font-optical-sizing: auto; font-feature-settings: normal; font-variation-settings: normal; font-variant-position: normal; font-stretch: normal; line-height: normal; text-align: start;&quot; class=&quot;p1&quot;&gt;&lt;span style=&quot;text-align: center; text-indent: 0px;&quot;&gt;&lt;font style=&quot;font-size: 14px;&quot; face=&quot;Times New Roman&quot;&gt;[Транзакция.Статус]&lt;/font&gt;&lt;/span&gt;&lt;br&gt;&lt;/p&gt;" style="rounded=1;whiteSpace=wrap;html=1;fillColor=#B8B8B8;strokeColor=#FFD966;" parent="1" vertex="1">
          <mxGeometry x="1925" y="1411" width="125" height="21" as="geometry" />
        </mxCell>
        <mxCell id="5yhpN9zNZQplvpEK3OU1-607" value="Сервис: Личный кабинет пользователя" style="rounded=1;whiteSpace=wrap;html=1;strokeColor=#ff0000;strokeWidth=3;align=center;horizontal=1;labelPosition=center;verticalLabelPosition=top;verticalAlign=bottom;fontSize=24;" parent="1" vertex="1">
          <mxGeometry x="1325" y="160" width="329" height="335.5" as="geometry" />
        </mxCell>
        <mxCell id="5yhpN9zNZQplvpEK3OU1-609" value="" style="group;fillColor=#f8cecc;strokeColor=#B80606;strokeWidth=14;" parent="1" vertex="1" connectable="0">
          <mxGeometry x="1335" y="196.5" width="309" height="39" as="geometry" />
        </mxCell>
        <mxCell id="5yhpN9zNZQplvpEK3OU1-610" value="" style="group" parent="5yhpN9zNZQplvpEK3OU1-609" vertex="1" connectable="0">
          <mxGeometry width="309" height="39" as="geometry" />
        </mxCell>
        <mxCell id="5yhpN9zNZQplvpEK3OU1-611" value="" style="rounded=1;whiteSpace=wrap;html=1;gradientColor=none;fillColor=#1C57CD;strokeColor=none;movable=1;resizable=1;rotatable=1;deletable=1;editable=1;locked=0;connectable=1;" parent="5yhpN9zNZQplvpEK3OU1-610" vertex="1">
          <mxGeometry width="309" height="39" as="geometry" />
        </mxCell>
        <mxCell id="5yhpN9zNZQplvpEK3OU1-612" value="" style="sketch=0;outlineConnect=0;dashed=0;verticalLabelPosition=bottom;verticalAlign=top;align=center;html=1;fontSize=12;fontStyle=0;aspect=fixed;pointerEvents=1;shape=mxgraph.aws4.gear;rounded=1;strokeColor=none;fillColor=default;" parent="5yhpN9zNZQplvpEK3OU1-610" vertex="1">
          <mxGeometry x="280" y="11" width="17" height="17" as="geometry" />
        </mxCell>
        <mxCell id="5yhpN9zNZQplvpEK3OU1-613" value="Хранение информации о пользователя" style="text;html=1;align=center;verticalAlign=middle;whiteSpace=wrap;rounded=1;fontSize=13;fontColor=#FFFFFF;strokeColor=none;movable=1;resizable=1;rotatable=1;deletable=1;editable=1;locked=0;connectable=1;" parent="5yhpN9zNZQplvpEK3OU1-610" vertex="1">
          <mxGeometry x="3" y="4.5" width="172" height="30" as="geometry" />
        </mxCell>
        <mxCell id="5yhpN9zNZQplvpEK3OU1-633" value="&lt;p style=&quot;margin: 0px 0px 0px 13px; text-indent: -13px; font-variant-numeric: normal; font-variant-east-asian: normal; font-variant-alternates: normal; font-kerning: auto; font-optical-sizing: auto; font-feature-settings: normal; font-variation-settings: normal; font-variant-position: normal; font-stretch: normal; font-size: 14px; line-height: normal; color: rgb(14, 14, 14); text-align: start;&quot; class=&quot;p1&quot;&gt;&lt;font face=&quot;Times New Roman&quot;&gt;Заказ.ID&lt;/font&gt;&lt;/p&gt;" style="rounded=1;whiteSpace=wrap;html=1;fillColor=#b1ddf0;strokeColor=#10739e;" parent="1" vertex="1">
          <mxGeometry x="1754" y="2232.75" width="144.5" height="21" as="geometry" />
        </mxCell>
        <mxCell id="5yhpN9zNZQplvpEK3OU1-634" value="&lt;p style=&quot;margin: 0px 0px 0px 13px; text-indent: -13px; font-variant-numeric: normal; font-variant-east-asian: normal; font-variant-alternates: normal; font-kerning: auto; font-optical-sizing: auto; font-feature-settings: normal; font-variation-settings: normal; font-variant-position: normal; font-stretch: normal; font-size: 14px; line-height: normal; color: rgb(14, 14, 14); text-align: start;&quot; class=&quot;p1&quot;&gt;&lt;font face=&quot;Times New Roman&quot;&gt;Заказ.Время создания&lt;/font&gt;&lt;/p&gt;" style="rounded=1;whiteSpace=wrap;html=1;fillColor=#b1ddf0;strokeColor=#10739e;" parent="1" vertex="1">
          <mxGeometry x="1754" y="2269.75" width="144.5" height="21" as="geometry" />
        </mxCell>
        <mxCell id="5yhpN9zNZQplvpEK3OU1-637" value="&lt;p style=&quot;margin: 0px 0px 0px 13px; text-indent: -13px; font-variant-numeric: normal; font-variant-east-asian: normal; font-variant-alternates: normal; font-kerning: auto; font-optical-sizing: auto; font-feature-settings: normal; font-variation-settings: normal; font-variant-position: normal; font-stretch: normal; font-size: 14px; line-height: normal; color: rgb(14, 14, 14); text-align: start;&quot; class=&quot;p1&quot;&gt;&lt;font face=&quot;Times New Roman&quot;&gt;Аппеляция.ID&lt;/font&gt;&lt;/p&gt;" style="rounded=1;whiteSpace=wrap;html=1;fillColor=#b1ddf0;strokeColor=#10739e;" parent="1" vertex="1">
          <mxGeometry x="2771" y="704.75" width="78" height="21" as="geometry" />
        </mxCell>
        <mxCell id="rUi3FPnXu4-CrBb1EZRR-5" value="Kafka" style="shape=process;whiteSpace=wrap;html=1;backgroundOutline=1;strokeColor=#ff0000;strokeWidth=7;" parent="1" vertex="1">
          <mxGeometry x="2070" y="212.5" width="155" height="43.75" as="geometry" />
        </mxCell>
        <mxCell id="rUi3FPnXu4-CrBb1EZRR-8" value="&lt;font style=&quot;font-size: 31px;&quot;&gt;MongoDB&lt;/font&gt;" style="shape=cylinder3;whiteSpace=wrap;html=1;boundedLbl=1;backgroundOutline=1;size=15;strokeColor=#ff0000;" parent="1" vertex="1">
          <mxGeometry x="898" y="1930" width="191" height="246" as="geometry" />
        </mxCell>
        <mxCell id="sdnIlh2cug-v7nJpGOBW-1" value="Очередь с приоритеом" style="swimlane;childLayout=stackLayout;resizeParent=1;resizeParentMax=0;horizontal=1;startSize=20;horizontalStack=0;html=1;strokeColor=#BF0D0D;strokeWidth=5;" parent="1" vertex="1">
          <mxGeometry x="2715" y="1135" width="260" height="60" as="geometry" />
        </mxCell>
        <mxCell id="sdnIlh2cug-v7nJpGOBW-2" value="Lane 1" style="swimlane;startSize=20;horizontal=0;html=1;strokeColor=#BF0D0D;strokeWidth=5;" parent="sdnIlh2cug-v7nJpGOBW-1" vertex="1">
          <mxGeometry y="20" width="260" height="20" as="geometry" />
        </mxCell>
        <mxCell id="sdnIlh2cug-v7nJpGOBW-3" value="Lane 2" style="swimlane;startSize=20;horizontal=0;html=1;strokeColor=#BF0D0D;strokeWidth=5;" parent="sdnIlh2cug-v7nJpGOBW-1" vertex="1">
          <mxGeometry y="40" width="260" height="20" as="geometry" />
        </mxCell>
        <mxCell id="sdnIlh2cug-v7nJpGOBW-7" value="&lt;font style=&quot;font-size: 12px;&quot;&gt;А.2. Создание нового пользователя. Предоставление ему базовых ролей&lt;/font&gt;" style="edgeStyle=orthogonalEdgeStyle;rounded=0;orthogonalLoop=1;jettySize=auto;html=1;exitX=0;exitY=0;exitDx=0;exitDy=0;entryX=0.92;entryY=0.999;entryDx=0;entryDy=0;entryPerimeter=0;fontSize=12;fontColor=#FF4A4A;strokeColor=#ff0000;" parent="1" source="5yhpN9zNZQplvpEK3OU1-287" target="5yhpN9zNZQplvpEK3OU1-351" edge="1">
          <mxGeometry relative="1" as="geometry">
            <Array as="points">
              <mxPoint x="1841" y="930" />
              <mxPoint x="1113" y="930" />
            </Array>
          </mxGeometry>
        </mxCell>
        <mxCell id="sdnIlh2cug-v7nJpGOBW-8" value="А. 3. Добавление личных данных" style="edgeStyle=orthogonalEdgeStyle;rounded=0;orthogonalLoop=1;jettySize=auto;html=1;entryX=1.003;entryY=0.537;entryDx=0;entryDy=0;entryPerimeter=0;strokeColor=#ff0000;fontColor=#ff0000;" parent="1" source="5yhpN9zNZQplvpEK3OU1-472" target="5yhpN9zNZQplvpEK3OU1-607" edge="1">
          <mxGeometry x="-0.0108" y="24" relative="1" as="geometry">
            <Array as="points">
              <mxPoint x="1744" y="930" />
              <mxPoint x="1744" y="340" />
            </Array>
            <mxPoint y="-1" as="offset" />
          </mxGeometry>
        </mxCell>
        <mxCell id="sdnIlh2cug-v7nJpGOBW-9" value="А.4. Добавление базовых услуг/товаров" style="edgeStyle=orthogonalEdgeStyle;rounded=0;orthogonalLoop=1;jettySize=auto;html=1;entryX=0;entryY=0.25;entryDx=0;entryDy=0;fontColor=#FF2929;strokeColor=#ff0000;" parent="1" edge="1">
          <mxGeometry relative="1" as="geometry">
            <mxPoint x="2162.5000000000005" y="1170" as="sourcePoint" />
            <mxPoint x="2714" y="1675.8749999999995" as="targetPoint" />
            <Array as="points">
              <mxPoint x="2449" y="1170" />
              <mxPoint x="2449" y="1600" />
              <mxPoint x="2714" y="1600" />
            </Array>
          </mxGeometry>
        </mxCell>
        <mxCell id="sdnIlh2cug-v7nJpGOBW-14" value="Б.3 Проверка профиля" style="edgeStyle=orthogonalEdgeStyle;rounded=0;orthogonalLoop=1;jettySize=auto;html=1;entryX=0.976;entryY=0.955;entryDx=0;entryDy=0;entryPerimeter=0;strokeColor=#FF3636;fontColor=#FF3636;" parent="1" source="5yhpN9zNZQplvpEK3OU1-472" target="5yhpN9zNZQplvpEK3OU1-607" edge="1">
          <mxGeometry relative="1" as="geometry" />
        </mxCell>
        <mxCell id="sdnIlh2cug-v7nJpGOBW-15" value="Б.4. Резервирование товара" style="edgeStyle=orthogonalEdgeStyle;rounded=0;orthogonalLoop=1;jettySize=auto;html=1;entryX=0;entryY=0;entryDx=0;entryDy=0;fontColor=#ff0000;strokeColor=#ff0000;" parent="1" source="5yhpN9zNZQplvpEK3OU1-472" target="5yhpN9zNZQplvpEK3OU1-454" edge="1">
          <mxGeometry relative="1" as="geometry">
            <Array as="points">
              <mxPoint x="2580" y="1110" />
              <mxPoint x="2580" y="1562" />
            </Array>
          </mxGeometry>
        </mxCell>
        <mxCell id="sdnIlh2cug-v7nJpGOBW-16" style="edgeStyle=orthogonalEdgeStyle;rounded=0;orthogonalLoop=1;jettySize=auto;html=1;entryX=0.5;entryY=0;entryDx=0;entryDy=0;strokeColor=#ff0000;fontColor=#ff0000;" parent="1" source="5yhpN9zNZQplvpEK3OU1-472" target="sdnIlh2cug-v7nJpGOBW-1" edge="1">
          <mxGeometry relative="1" as="geometry" />
        </mxCell>
        <mxCell id="sdnIlh2cug-v7nJpGOBW-17" value="Б.7. Пометка товара о продаже" style="edgeStyle=orthogonalEdgeStyle;rounded=0;orthogonalLoop=1;jettySize=auto;html=1;entryX=0;entryY=0;entryDx=0;entryDy=0;fontColor=#ff0000;strokeColor=#e00000;" parent="1" source="5yhpN9zNZQplvpEK3OU1-472" target="5yhpN9zNZQplvpEK3OU1-454" edge="1">
          <mxGeometry relative="1" as="geometry">
            <Array as="points">
              <mxPoint x="2620" y="1070" />
              <mxPoint x="2620" y="1562" />
            </Array>
          </mxGeometry>
        </mxCell>
        <mxCell id="sdnIlh2cug-v7nJpGOBW-20" style="edgeStyle=orthogonalEdgeStyle;rounded=0;orthogonalLoop=1;jettySize=auto;html=1;entryX=0.094;entryY=0.022;entryDx=0;entryDy=0;entryPerimeter=0;strokeColor=#FF0A0A;" parent="1" source="5yhpN9zNZQplvpEK3OU1-518" target="5yhpN9zNZQplvpEK3OU1-422" edge="1">
          <mxGeometry relative="1" as="geometry">
            <Array as="points">
              <mxPoint x="331" y="1540" />
              <mxPoint x="2231" y="1540" />
            </Array>
          </mxGeometry>
        </mxCell>
        <mxCell id="sdnIlh2cug-v7nJpGOBW-24" value="Elasticsearch" style="strokeWidth=2;html=1;shape=mxgraph.flowchart.database;whiteSpace=wrap;rounded=1;movable=1;resizable=1;rotatable=1;deletable=1;editable=1;locked=0;connectable=1;strokeColor=#ff0000;fontSize=24;" parent="1" vertex="1">
          <mxGeometry x="2850" y="2017.5" width="260" height="294" as="geometry" />
        </mxCell>
        <mxCell id="sdnIlh2cug-v7nJpGOBW-25" value="&lt;span style=&quot;font-size: 31px;&quot;&gt;Clickhouse&lt;/span&gt;" style="shape=cylinder3;whiteSpace=wrap;html=1;boundedLbl=1;backgroundOutline=1;size=15;strokeColor=#ff0000;" parent="1" vertex="1">
          <mxGeometry x="1134" y="1932.75" width="191" height="246" as="geometry" />
        </mxCell>
        <mxCell id="tlaVXL0Ew6TYlpr6ZXMQ-1" value="Kafka" style="shape=process;whiteSpace=wrap;html=1;backgroundOutline=1;strokeColor=#ff0000;strokeWidth=7;" vertex="1" parent="1">
          <mxGeometry x="1304.5" y="1732" width="155" height="43.75" as="geometry" />
        </mxCell>
      </root>
    </mxGraphModel>
  </diagram>
</mxfile>
